<?xml version="1.0" standalone="no"?>
<!DOCTYPE svg PUBLIC "-//W3C//DTD SVG 1.1//EN" "http://www.w3.org/Graphics/SVG/1.1/DTD/svg11.dtd" >
<svg xmlns="http://www.w3.org/2000/svg">
<metadata>Generated by IcoMoon</metadata>
<defs>
<font id="icomoon" horiz-adv-x="1024">
<font-face units-per-em="1024" ascent="960" descent="-64" />
<missing-glyph horiz-adv-x="1024" />
<glyph unicode="&#x20;" horiz-adv-x="512" d="" />
<glyph unicode="&#xe900;" glyph-name="cal_mal" d="M874 810c-96.6 96.8-225.2 150-362 150s-265.4-53.2-362-150c-96.8-96.6-150-225.2-150-362s53.2-265.4 150-362c96.8-96.8 225.2-150 362-150s265.4 53.2 362 150c96.8 96.8 150 225.2 150 362s-53.2 265.4-150 362zM512-4c-249.2 0-452 202.8-452 452s202.8 452 452 452 452-202.8 452-452-202.8-452-452-452zM554.4 448l169.4 169.6c11.8 11.8 11.8 30.8 0 42.4v0c-11.8 11.8-30.8 11.8-42.4 0l-169.4-169.6-169.6 169.6c-11.8 11.8-30.8 11.8-42.4 0s-11.8-30.8 0-42.4l169.6-169.4-169.6-169.8c-11.8-11.8-11.8-30.8 0-42.4v0c11.8-11.8 30.8-11.8 42.4 0l169.4 169.6 169.6-169.4c11.8-11.8 30.8-11.8 42.4 0s11.8 30.8 0 42.4l-169.4 169.4z" />
<glyph unicode="&#xe901;" glyph-name="calendario" horiz-adv-x="1042" d="M770.659 888.144c-8.249 41.029-44.503 71.856-87.92 71.856-9.986 0-18.018-8.032-18.018-18.018s8.032-18.018 18.018-18.018c29.741 0 53.838-24.097 53.838-53.838s-24.097-53.838-53.838-53.838c-9.986 0-18.018-8.032-18.018-18.018s8.032-18.018 18.018-18.018c43.417 0 79.671 30.826 87.92 71.856h235.322v-161.73h-969.945v161.73h305.442c9.986 0 18.018 8.032 18.018 18.018s-8.032 18.018-18.018 18.018h-32.563c7.381 20.84 27.136 36.036 50.581 36.036 29.741 0 53.838-24.097 53.838-53.838s-24.097-53.838-53.838-53.838c-9.986 0-18.018-8.032-18.018-18.018s8.032-18.018 18.018-18.018c49.496 0 89.874 40.378 89.874 89.874s-40.595 89.657-90.091 89.657c-43.417 0-79.671-30.826-87.92-71.856h-271.359v-952.144h1042.018v952.144h-271.359zM1005.982-28.181h-969.945v682.739h970.162v-682.739zM467.172 923.964c29.741 0 53.838-24.097 53.838-53.838s-24.097-53.838-53.838-53.838c-9.986 0-18.018-8.032-18.018-18.018s8.032-18.018 18.018-18.018c49.496 0 89.874 40.378 89.874 89.874s-40.378 89.874-89.874 89.874c-9.986 0-18.018-8.032-18.018-18.018s8.032-18.018 18.018-18.018zM574.847 923.964c29.741 0 53.838-24.097 53.838-53.838s-24.097-53.838-53.838-53.838c-9.986 0-18.018-8.032-18.018-18.018s8.032-18.018 18.018-18.018c49.496 0 89.874 40.378 89.874 89.874s-40.378 89.874-89.874 89.874c-9.986 0-18.018-8.032-18.018-18.018s8.249-18.018 18.018-18.018zM233.586 367.135c59.482 0 107.892 48.41 107.892 107.892s-48.41 107.892-107.892 107.892-107.892-48.41-107.892-107.892 48.41-107.892 107.892-107.892zM233.586 546.883c39.727 0 71.856-32.129 71.856-71.856s-32.129-71.856-71.856-71.856-71.856 32.129-71.856 71.856 32.129 71.856 71.856 71.856zM521.009 367.135c59.482 0 107.892 48.41 107.892 107.892s-48.41 107.892-107.892 107.892-107.892-48.41-107.892-107.892 48.41-107.892 107.892-107.892zM521.009 546.883c39.727 0 71.856-32.129 71.856-71.856s-32.129-71.856-71.856-71.856-71.856 32.129-71.856 71.856 32.129 71.856 71.856 71.856zM808.432 367.135c59.482 0 107.892 48.41 107.892 107.892s-48.41 107.892-107.892 107.892c-59.482 0-107.892-48.41-107.892-107.892s48.41-107.892 107.892-107.892zM808.432 546.883c39.727 0 71.856-32.129 71.856-71.856s-32.129-71.856-71.856-71.856-71.856 32.129-71.856 71.856 32.346 71.856 71.856 71.856zM233.586 79.712c59.482 0 107.892 48.41 107.892 107.892s-48.41 107.892-107.892 107.892-107.892-48.41-107.892-107.892c0-59.482 48.41-107.892 107.892-107.892zM233.586 259.243c39.727 0 71.856-32.129 71.856-71.856s-32.346-71.856-71.856-71.856-71.856 32.129-71.856 71.856 32.129 71.856 71.856 71.856zM521.009 79.712c59.482 0 107.892 48.41 107.892 107.892s-48.41 107.892-107.892 107.892-107.892-48.41-107.892-107.892c0-59.482 48.41-107.892 107.892-107.892zM521.009 259.243c39.727 0 71.856-32.129 71.856-71.856s-32.129-71.856-71.856-71.856-71.856 32.129-71.856 71.856 32.129 71.856 71.856 71.856zM826.451 97.73c0-9.951-8.067-18.018-18.018-18.018s-18.018 8.067-18.018 18.018c0 9.951 8.067 18.018 18.018 18.018s18.018-8.067 18.018-18.018zM754.595 115.531c0-9.951-8.067-18.018-18.018-18.018s-18.018 8.067-18.018 18.018c0 9.951 8.067 18.018 18.018 18.018s18.018-8.067 18.018-18.018zM898.307 115.531c0-9.951-8.067-18.018-18.018-18.018s-18.018 8.067-18.018 18.018c0 9.951 8.067 18.018 18.018 18.018s18.018-8.067 18.018-18.018zM898.307 259.243c0-9.951-8.067-18.018-18.018-18.018s-18.018 8.067-18.018 18.018c0 9.951 8.067 18.018 18.018 18.018s18.018-8.067 18.018-18.018zM754.595 259.243c0-9.951-8.067-18.018-18.018-18.018s-18.018 8.067-18.018 18.018c0 9.951 8.067 18.018 18.018 18.018s18.018-8.067 18.018-18.018zM790.631 223.423c0-9.951-8.067-18.018-18.018-18.018s-18.018 8.067-18.018 18.018c0 9.951 8.067 18.018 18.018 18.018s18.018-8.067 18.018-18.018zM862.487 223.423c0-9.951-8.067-18.018-18.018-18.018s-18.018 8.067-18.018 18.018c0 9.951 8.067 18.018 18.018 18.018s18.018-8.067 18.018-18.018zM826.451 187.387c0-9.951-8.067-18.018-18.018-18.018s-18.018 8.067-18.018 18.018c0 9.951 8.067 18.018 18.018 18.018s18.018-8.067 18.018-18.018zM790.631 151.568c0-9.951-8.067-18.018-18.018-18.018s-18.018 8.067-18.018 18.018c0 9.951 8.067 18.018 18.018 18.018s18.018-8.067 18.018-18.018zM862.487 151.568c0-9.951-8.067-18.018-18.018-18.018s-18.018 8.067-18.018 18.018c0 9.951 8.067 18.018 18.018 18.018s18.018-8.067 18.018-18.018zM916.325 187.387c0-9.951-8.067-18.018-18.018-18.018s-18.018 8.067-18.018 18.018c0 9.951 8.067 18.018 18.018 18.018s18.018-8.067 18.018-18.018zM736.577 187.387c0-9.951-8.067-18.018-18.018-18.018s-18.018 8.067-18.018 18.018c0 9.951 8.067 18.018 18.018 18.018s18.018-8.067 18.018-18.018zM826.451 277.261c0-9.951-8.067-18.018-18.018-18.018s-18.018 8.067-18.018 18.018c0 9.951 8.067 18.018 18.018 18.018s18.018-8.067 18.018-18.018z" />
<glyph unicode="&#xe902;" glyph-name="campana" horiz-adv-x="1460" d="M718.26 561.169c3.955 0.608 6.693 2.434 9.127 5.476s3.346 6.389 3.042 10.343c-0.608 3.955-2.434 6.693-5.476 9.127-2.434 1.825-5.476 3.042-8.822 3.042-0.608 0-0.913 0-1.521 0-272.884-31.639-346.201-261.324-349.851-271.059-0.913-3.346-0.913-7.301 0.913-10.648s4.867-5.78 8.214-6.693c6.693-1.825 14.907 1.825 17.036 9.127 1.825 1.521 72.404 221.775 327.339 251.285zM246.417-64h940.036c37.419 0 66.624 20.383 66.624 46.545v33.16c0 43.807-41.678 79.705-92.787 79.705h-109.214v99.48h147.546c5.78 0 11.256 3.955 13.081 9.735 10.343 31.030 14.602 61.148 14.602 92.787 0 202.001-184.965 367.192-440.509 393.051l-16.428 1.521 50.5 127.772 4.259 1.825c25.859 12.777 41.678 36.506 41.678 61.148 0 39.244-36.81 70.883-82.443 70.883h-133.552c-45.633 0-82.443-31.943-82.443-70.883 0-24.642 14.907-47.458 40.461-60.844l3.651-1.825 51.413-129.293-16.124-1.825c-245.809-29.205-438.075-201.697-438.075-392.442 0-31.030 4.867-63.277 13.69-92.178 1.825-5.78 7.301-9.735 13.081-9.735h130.206v-99.48h-92.787c-51.109 0-92.787-35.594-92.787-79.705v-33.16c0-25.859 28.901-46.241 66.32-46.241zM594.747 883.337c0 23.729 24.642 43.807 54.759 43.807h134.16c30.118 0 54.759-19.47 54.759-43.807 0-23.729-24.642-43.199-54.759-43.199h-133.552c-30.422-0.608-55.368 18.862-55.368 43.199zM644.944 811.846h142.679l-47.154-118.949-15.515 0.608c-5.78 0.608-11.256 0.608-16.428 0l-16.124-0.608-47.458 118.949zM281.402 222.27c-21.295 0-40.765 16.428-43.199 36.81v0c-1.521 12.777-2.434 25.25-2.434 38.027 0 196.829 224.513 369.626 480.97 369.626 270.146 0 481.882-162.453 481.882-369.93 0-13.081-0.913-25.859-3.042-38.332-3.042-19.774-22.208-36.506-43.807-36.506l-870.37 0.304zM1023.392 194.586v-99.48h-630.037v99.48h630.037zM207.781-17.455v33.16c0 28.597 29.205 52.021 65.103 52.021h887.406c35.898 0 65.103-23.425 65.103-52.021l0.608-34.072-1.825-3.042c-4.259-7.301-18.557-14.602-37.419-14.602h-940.644c-11.256 0-21.904 2.434-31.639 7.91l-9.127 2.434 2.434 8.214zM204.739 601.935c4.259 5.78 3.346 14.602-3.042 19.47l-179.489 134.465c-2.434 1.825-5.476 3.042-8.214 3.042-4.259 0-8.214-1.825-11.256-5.476-4.259-6.389-3.346-14.602 3.042-19.47l179.793-134.465c9.127-7.301 15.211-2.738 19.166 2.434zM366.583 768.038c0.608 3.955-0.608 7.301-3.042 10.343l-138.724 175.838c-2.434 3.042-5.476 4.867-9.127 5.476-0.608 0-0.913 0-1.521 0-3.042 0-5.78-0.913-8.214-3.042-3.042-2.434-4.867-5.476-5.476-9.127-0.608-3.955 0.608-7.301 3.042-10.343l139.028-175.838c3.955-4.867 10.343-9.735 19.47-2.434 2.434 2.434 4.563 5.78 4.563 9.127zM1122.263 757.999l134.465 179.793c4.259 6.389 3.346 14.602-3.042 19.47-2.434 1.825-5.476 3.042-8.214 3.042-4.259 0-8.214-1.825-11.256-5.476l-134.465-179.793c-4.259-6.389-3.346-14.602 3.042-19.47 6.084-4.867 14.602-3.346 19.47 2.434zM1257.031 608.323c-0.608-3.955 0.608-7.301 3.042-10.343 3.955-4.867 10.343-9.735 19.47-2.434l175.838 139.028c5.78 4.867 6.693 13.69 2.434 19.47-3.042 3.346-6.693 5.476-10.648 5.476-3.042 0-5.78-0.913-8.822-3.042l-175.838-139.028c-3.042-1.825-5.172-5.172-5.476-9.127z" />
<glyph unicode="&#xe903;" glyph-name="campana_cancelar" horiz-adv-x="1028" d="M888.152-41.93c3.428 2.786 4.5 6.214 4.714 8.571 0.429 2.143 0.429 5.785-2.786 9.214l-356.118 451.040 344.119 460.039c4.071 5.571 3 13.499-2.786 17.999-2.786 2.143-5.785 2.786-9.214 2.357s-6.214-2.357-8.357-4.714l-340.048-455.111-359.332 455.111c-2.786 3.428-6.214 4.5-8.571 4.714-0.429 0-1.071 0-1.286 0-2.786 0-5.571-0.643-7.499-2.357-3.857-3-4.714-6.642-5.142-8.571-0.429-2.143-0.429-5.785 2.786-9.214l363.189-460.682-351.404-470.11c-4.071-5.571-3-13.499 2.786-17.999 2.143-1.714 4.5-2.357 7.285-2.357 4.071 0 7.928 1.714 10.285 5.142l347.333 464.753 352.047-445.683c4.5-5.357 12.642-6.428 17.999-2.143zM409.9 834.009l3.857-2.143 49.282-123.849-15.427-1.714c-31.069-3.857-61.281-10.071-90.208-17.999l17.57-22.070c44.354 11.785 91.494 18.213 140.133 18.213s95.35-5.571 139.062-15.856l16.927 22.713c-28.927 7.285-58.924 12.642-89.779 15.856l-15.856 1.714 48.639 121.92 4.071 2.143c24.855 12.428 40.283 34.712 40.283 58.924 0 37.497-35.355 68.138-79.066 68.138h-128.134c-43.711 0-79.066-30.641-79.066-68.138-0.857-23.784 13.713-45.425 37.712-57.853zM536.963 709.732l-14.785 0.429c-5.571 0.429-10.714 0.429-16.285 0l-15.427-0.643-45.425 114.206h136.705l-44.783-113.992zM450.611 933.859h127.92c28.927 0 52.711-18.642 52.711-41.569s-23.784-41.783-52.711-41.783h-128.134c-28.927 0-52.711 18.642-52.711 41.569 0.214 22.927 23.998 41.783 52.925 41.783zM161.774 10.352h-98.136c-10.928 0-20.999 2.357-29.998 7.285l-8.999 2.357 1.714 8.571v31.712c0 27.641 27.855 49.925 62.353 49.925h147.418l19.927 26.57h-51.639v95.35h122.777l19.927 26.57h-249.411c-20.356 0-38.997 15.856-41.569 35.14v0c-1.714 11.999-2.357 23.998-2.357 36.212 0 130.705 103.707 250.483 248.768 311.55l-16.927 21.427c-153.204-66.424-258.411-194.558-258.411-332.763 0-29.998 4.5-60.639 13.071-88.494 1.714-5.571 6.857-9.214 12.642-9.214h124.92v-95.35h-89.137c-48.854-0.643-88.708-34.712-88.708-76.923v-31.712c0-25.070 27.855-44.783 63.638-44.783h78.209l19.927 26.57zM436.898 258.049l-19.713-26.355h208.914l-20.999 26.355zM939.792 136.343h-104.564v95.35h141.419c5.785 0 10.928 3.857 12.642 9.214 9.642 29.569 14.142 58.924 14.142 88.708 0 147.418-103.279 274.695-260.553 337.691l-16.285-21.641c149.775-57.853 250.268-176.131 250.268-316.049 0-12.642-0.643-24.427-2.357-36.426-2.786-19.284-21.641-34.712-41.997-34.712h-235.698l20.999-26.57h91.279v-95.35h-16.285l20.999-26.57h125.991c34.498 0 62.353-22.284 62.353-49.925l0.429-32.783-1.714-2.786c-4.071-6.857-17.999-14.142-35.783-14.142h-72.209l15.856-20.356c1.714-2.143 2.786-4.071 3.857-6.214h52.711c35.783 0 63.638 19.713 63.638 44.783v31.284c-0.429 42.426-40.283 76.495-89.137 76.495zM345.619 136.343l-19.713-26.57h396.615l-20.999 26.57zM821.943-16.218l-20.999 26.57h-549.39l-19.927-26.57zM178.916 339.686c1.714-3 4.5-5.571 7.928-6.642 6.642-2.143 14.356 2.143 16.499 8.999 0.429 1.714 41.997 131.134 176.988 200.772l-17.142 21.641c-140.347-73.923-183.202-207.628-185.13-214.699-1.071-3.428-0.857-6.857 0.857-10.071zM450.183 570.456c20.356 5.785 42.426 10.285 65.995 13.071 3.428 0.429 6.642 2.143 8.999 4.714 2.143 2.786 3 6.214 2.786 9.642-0.429 3.428-2.143 6.642-4.714 8.999-2.357 1.714-5.142 2.786-8.357 2.786-0.429 0-1.071 0-1.286 0-29.355-3.428-56.139-9.214-80.994-16.927l17.57-22.284z" />
<glyph unicode="&#xe904;" glyph-name="controles" horiz-adv-x="987" d="M127.949 704.103c64.386 0 117.663 47.724 126.509 109.641h714.62c10.080 0 18.308 8.228 18.308 18.308s-8.228 18.308-18.308 18.308h-714.62c-8.845 61.917-62.123 109.641-126.509 109.641-70.557 0-127.949-57.392-127.949-127.949s57.392-127.949 127.949-127.949zM127.949 923.384c50.398 0 91.333-40.935 91.333-91.333s-40.935-91.333-91.333-91.333-91.333 40.935-91.333 91.333 40.935 91.333 91.333 91.333zM859.436 192.103c-64.386 0-117.663-47.724-126.509-109.641h-714.62c-10.080 0-18.308-8.228-18.308-18.308s8.228-18.308 18.308-18.308h714.62c8.845-61.917 62.123-109.641 126.509-109.641 70.557 0 127.949 57.392 127.949 127.949s-57.392 127.949-127.949 127.949zM859.436-27.384c-50.398 0-91.333 40.935-91.333 91.333s40.935 91.333 91.333 91.333c50.398 0 91.333-40.935 91.333-91.333s-40.935-91.333-91.333-91.333zM969.077 466.308h-340.648c-7.2 65.826-63.151 117.252-131.034 117.252s-123.629-51.426-131.034-117.252h-348.053c-10.080 0-18.308-8.228-18.308-18.308s8.228-18.308 18.308-18.308h349.493c10.491-62.123 64.591-109.641 129.8-109.641s119.309 47.518 129.8 109.641h341.882c10.080 0 18.308 8.228 18.308 18.308-0.206 10.080-8.434 18.308-18.513 18.308zM497.395 356.667c-52.455 0-95.241 42.787-95.241 95.241s42.787 95.241 95.241 95.241 95.241-42.787 95.241-95.241-42.581-95.241-95.241-95.241z" />
<glyph unicode="&#xe905;" glyph-name="corazones" horiz-adv-x="1079" d="M537.504-64c292.122 210.328 439.082 402.005 508.068 548.965 79.996 171.228 11.235 383.354-163.813 454.137-206.508 83.817-344.255-109.883-344.255-109.883s-134.151 193.475-340.659 109.658c-174.824-70.559-243.81-282.684-163.813-453.913 68.986-146.96 214.148-338.637 504.472-548.965z" />
<glyph unicode="&#xe906;" glyph-name="corazones_border" horiz-adv-x="1075" d="M1049.721 754.892c-32.976 84.198-95.629 149.049-176.969 182.245-109.039 45.067-198.733 12.311-254.791-23.083-37.592-23.742-64.632-51.002-80.021-68.809-15.389 18.027-42.209 45.286-79.581 69.029-55.839 35.614-145.532 68.589-255.67 24.622-81.34-32.756-144.433-97.168-177.408-181.146-35.174-89.693-31.437-191.698 10.112-279.852 58.916-124.647 192.137-318.544 491.555-534.204l10.772-7.914 10.552 7.694c304.034 217.638 435.057 409.776 491.335 532.445 41.329 87.935 44.847 189.499 10.112 278.973zM1006.633 491.528c-53.64-116.953-178.508-300.297-468.912-510.461-285.568 208.185-412.634 393.508-468.912 512.44-37.372 79.141-40.67 170.593-9.233 250.834 29.238 74.525 84.857 131.462 156.744 160.481 31.217 12.311 62.214 18.686 92.112 18.686 44.187 0 87.715-13.41 129.484-39.79 50.782-32.096 81.34-73.645 84.417-77.822l15.389-21.984 14.949 21.544c0 0.22 0.22 0.22 0.22 0.44 7.914 10.772 37.812 47.924 84.637 77.383 71.007 44.627 145.312 51.442 221.156 20.005 72.106-29.458 127.725-87.055 156.744-161.8 31.437-80.46 28.139-171.473-8.793-249.954z" />
<glyph unicode="&#xe907;" glyph-name="cupon" d="M977 751.6h-930c-26 0-47-21.2-47-47v-141.2c0-13.4 6.8-26 18-32.8 29-17.8 46.2-48.8 46.2-82.6s-17.2-64.8-46.2-82.6c-11-6.8-18-19.4-18-32.8v-141.2c0-26 21.2-47 47-47h929.8c26 0 47 21.2 47 47v513.2c0.2 25.8-21 47-46.8 47zM994 191.4c0-9.4-7.6-17-17-17h-738.6v1c0 8.2-6.8 15-15 15s-15-6.8-15-15v-1h-161.4c-9.4 0-17 7.6-17 17v141.2c0 3 1.4 5.8 3.8 7.2 37.8 23.4 60.4 63.8 60.4 108.2s-22.6 84.8-60.4 108.2c-2.4 1.4-3.8 4.2-3.8 7.2v141.2c0 9.4 7.6 17 17 17h161.4v-1c0-8.2 6.8-15 15-15s15 6.8 15 15v1h738.6c9.4 0 17-7.6 17-17v-513.2zM223.4 479c-8.2 0-15-6.8-15-15v-32c0-8.2 6.8-15 15-15s15 6.8 15 15v32c0 8.4-6.6 15-15 15zM223.4 671.4c-8.2 0-15-6.8-15-15v-32c0-8.2 6.8-15 15-15s15 6.8 15 15v32c0 8.4-6.6 15-15 15zM223.4 575.2c-8.2 0-15-6.8-15-15v-32c0-8.2 6.8-15 15-15s15 6.8 15 15v32c0 8.4-6.6 15-15 15zM223.4 382.8c-8.2 0-15-6.8-15-15v-32c0-8.2 6.8-15 15-15s15 6.8 15 15v32c0 8.4-6.6 15-15 15zM223.4 286.6c-8.2 0-15-6.8-15-15v-32c0-8.2 6.8-15 15-15s15 6.8 15 15v32c0 8.4-6.6 15-15 15zM768.6 526.6l-88.6 6-33 82.4c-6 14.8-20.2 24.4-36.2 24.4s-30.2-9.6-36.2-24.4l-33-82.4-88.6-6c-16-1-29.4-11.6-34.4-26.8s-0.2-31.8 12-42l68-56.8-21.6-86c-4-15.6 2-31.6 14.8-41 13-9.4 30-10 43.6-1.4l75.2 47.2 75.2-47.2c6.4-4 13.6-6 20.8-6 8 0 16 2.6 23 7.4 13 9.4 18.8 25.6 14.8 41l-21.6 86 68 56.8c12.2 10.2 17 26.8 12 42-4.6 15.2-18.2 25.6-34.2 26.8zM771.8 480.8l-75.2-63c-4.4-3.6-6.4-9.6-5-15.2l24-95.2c1.4-5.4-2-8.4-3.4-9.4s-5.4-3.2-10-0.4l-83.2 52.4c-4.8 3-11 3-16 0l-83.2-52.2c-4.6-3-8.6-0.8-10 0.4-1.4 1-4.8 4.2-3.4 9.4l24 95.2c1.4 5.6-0.6 11.4-5 15.2l-75.4 62.8c-4.2 3.6-3.4 8-2.8 9.6 0.6 1.8 2.4 5.8 8 6.2l97.8 6.6c5.8 0.4 10.8 4 13 9.4l36.6 91c2 5 6.6 5.6 8.4 5.6s6.4-0.6 8.4-5.6l36.6-91c2.2-5.4 7.2-9 13-9.4l97.8-6.6c5.4-0.4 7.4-4.4 8-6.2 0.4-1.6 1.2-6-3-9.6z" />
<glyph unicode="&#xe908;" glyph-name="dashboar" horiz-adv-x="1022" d="M557.364 292.739h-523.714c-17.677 0-33.651 14.27-33.651 33.651v599.96c0 17.677 14.27 33.651 33.651 33.651h523.501c17.677 0 33.651-14.27 33.651-33.651v-601.664c0.213-17.89-15.76-31.947-33.438-31.947zM67.514 326.389h456.2c17.677 0 33.651 14.27 33.651 33.651v532.446c0 17.677-14.27 33.651-33.651 33.651h-456.2c-17.677-1.704-31.947-15.973-31.947-33.651v-532.446c0-19.381 14.057-33.651 31.947-33.651zM988.646 608.586h-298.17c-17.677 0-33.651 14.27-33.651 33.651v284.113c-0.213 17.677 14.057 33.651 33.651 33.651h298.17c17.677 0 33.651-14.27 33.651-33.651v-283.9c-1.704-19.594-15.973-33.864-33.651-33.864zM724.126 640.532h230.656c17.677 0 33.651 14.27 33.651 33.651v218.303c0 17.677-14.27 33.651-33.651 33.651h-230.656c-17.677 0-33.651-14.27-33.651-33.651v-218.303c0-17.677 15.973-33.651 33.651-33.651zM557.364-64h-523.714c-17.677 0-33.651 14.057-33.651 33.651v218.303c0 17.677 14.27 33.651 33.651 33.651h523.501c17.677 0 33.651-14.27 33.651-33.651v-218.303c0.213-17.677-15.76-33.651-33.438-33.651zM67.514-30.349h456.2c17.677 0 33.651 14.27 33.651 33.651v152.705c0 17.677-14.27 33.651-33.651 33.651h-456.2c-17.677 0-33.651-14.27-33.651-33.651v-152.705c1.704-17.677 15.76-33.651 33.651-33.651zM988.646-64h-298.17c-17.677 0-33.651 14.27-33.651 33.651v536.067c0 17.677 14.27 33.651 33.651 33.651h298.17c17.677 0 33.651-14.27 33.651-33.651v-536.067c-1.704-17.677-15.973-33.651-33.651-33.651zM724.126-30.349h230.656c17.677 0 33.651 14.27 33.651 33.651v470.469c0 17.677-14.27 33.651-33.651 33.651h-230.656c-17.677 0-33.651-14.27-33.651-33.651v-470.256c0-17.89 15.973-33.864 33.651-33.864z" />
<glyph unicode="&#xe909;" glyph-name="despleg" d="M512 248.747l-459.733 459.733c-11.307 11.307-29.44 11.307-40.747 0s-11.307-29.44 0-40.747l480.213-480.213c11.307-11.307 29.44-11.307 40.747 0l480 480.213c5.547 5.547 8.533 13.013 8.533 20.267s-2.773 14.72-8.533 20.267c-11.307 11.307-29.44 11.307-40.747 0l-459.733-459.52z" />
<glyph unicode="&#xe90a;" glyph-name="estrella_full" horiz-adv-x="1073" d="M1072.528 569.99c-2.013 7.603-7.603 11.629-15.43 13.418l-347.52 50.093-155.646 314.87c-3.802 5.814-9.616 11.629-17.219 11.629s-13.418-3.802-17.219-11.629l-155.646-314.87-345.731-50.093c-7.603-2.013-13.418-5.814-17.219-13.418-2.013-7.603 0-15.43 5.814-19.232l251.583-245.993-59.709-345.508c-2.013-7.603 2.013-15.43 7.603-19.232 3.802-2.013 7.603-3.802 11.629-3.802s5.814 0 9.616 2.013l311.292 163.25 311.069-163.473c5.814-3.802 13.418-2.013 21.021 2.013 5.814 3.802 9.616 11.629 7.603 19.232l-59.485 345.731 251.583 245.993c2.013 5.591 4.025 13.194 2.013 19.009z" />
<glyph unicode="&#xe90b;" glyph-name="estrella_med" horiz-adv-x="1076" d="M1075.806 572.019c-2.018 6.055-8.074 11.886-15.923 13.905l-347.837 50.011-155.865 313.973c-4.037 6.055-10.092 10.092-17.941 10.092v0 0l-165.957-337.969-372.282-52.030 270.017-261.943-64.14-369.815 333.933 163.939 311.954-163.939c6.055-4.037 13.905-2.018 19.96 2.018s8.074 11.886 8.074 17.941l-59.879 345.819 251.851 246.020c4.037 8.074 5.831 14.129 4.037 21.978zM783.811 326.223c-4.037-4.037-6.055-10.092-6.055-17.941l54.048-318.010-285.94 150.034c-2.018 2.018-6.055 0-8.074 0v757.796l141.961-289.976c2.018-6.055 8.074-10.092 13.905-10.092l320.028-45.975-229.873-225.836z" />
<glyph unicode="&#xe90c;" glyph-name="estrella_none" horiz-adv-x="1075" d="M217.158-63.776c-4.030 0-8.059 1.119-11.418 3.582-5.821 4.254-8.955 11.641-7.612 18.805l59.551 346.557-251.858 245.366c-5.149 5.149-7.164 12.761-4.925 19.701s8.283 12.089 15.447 13.209l347.9 50.596 155.816 315.215c3.134 6.492 9.85 10.746 17.238 10.746v0c7.388 0 14.104-4.254 17.238-10.746l155.592-315.215 347.9-50.596c7.164-1.119 13.209-6.045 15.447-13.209 2.239-6.94 0.448-14.552-4.925-19.701l-251.634-245.366 59.327-346.557c1.119-7.164-1.791-14.552-7.612-18.805s-13.88-4.925-20.373-1.567l-311.185 163.652-311.185-163.652c-2.686-1.343-5.821-2.015-8.731-2.015zM60.67 550.982l231.038-225.217c4.477-4.477 6.492-10.746 5.597-17.014l-54.625-318.125 285.663 149.996c5.597 2.91 12.313 2.91 17.91 0l285.663-150.22-54.625 318.125c-1.119 6.268 0.895 12.537 5.597 17.014l231.038 225.217-319.244 46.566c-6.268 0.895-11.641 4.925-14.552 10.522l-142.832 289.469-142.832-289.469c-2.91-5.597-8.283-9.627-14.552-10.522l-319.244-46.342z" />
<glyph unicode="&#xe90d;" glyph-name="facebook" d="M762.667 949.12l-130.133 0.213c-146.133 0-240.427-96.853-240.427-246.827v-113.707h-130.773c-11.307 0-20.48-9.173-20.48-20.48v-164.907c0-11.307 9.173-20.48 20.48-20.48h130.773v-416c0-11.307 9.173-20.48 20.48-20.48h170.667c11.307 0 20.48 9.173 20.48 20.48v416h152.96c11.307 0 20.48 9.173 20.48 20.48v164.907c0 5.333-2.133 10.667-5.973 14.507s-8.96 5.973-14.507 5.973h-152.96v96.427c0 46.293 11.093 69.973 71.467 69.973h87.68c11.307 0 20.48 9.173 20.48 20.48v152.96c-0.213 11.307-9.387 20.48-20.693 20.48z" />
<glyph unicode="&#xe90e;" glyph-name="furgoneta" horiz-adv-x="1530" d="M480.64 710.4h276.16c14.080 0 25.6 11.52 25.6 25.6s-11.52 25.6-25.6 25.6h-276.16c-14.080 0-25.6-11.52-25.6-25.6s11.2-25.6 25.6-25.6zM237.76 547.2h519.040c14.080 0 25.6 11.52 25.6 25.6s-11.52 25.6-25.6 25.6h-519.040c-14.080 0-25.6-11.52-25.6-25.6s11.52-25.6 25.6-25.6zM756.8 422.4h-194.24c-14.080 0-25.6-11.52-25.6-25.6s11.52-25.6 25.6-25.6h194.24c14.080 0 25.6 11.52 25.6 25.6s-11.52 25.6-25.6 25.6zM1482.24 499.2l-65.92 63.36c-2.56 2.24-5.12 4.16-8.32 5.44l-114.24 170.24c-28.48 42.88-76.8 68.48-128 68.16h-155.84c0 40.64-16 79.68-44.8 108.48s-67.84 45.12-108.48 45.12h-830.080c-14.4 0-26.24-11.52-26.56-25.6v-786.24c0.32-14.4 12.16-26.24 26.56-26.24h112.64c12.16-89.6 89.92-160.96 184-160.96s171.84 71.36 184 160.96h475.2c12.16-89.6 89.92-160.96 184-160.96s171.84 71.36 184 160.96h152.96c14.4 0.32 26.24 11.84 26.56 26.24v240.64c-0.64 41.6-17.6 81.6-47.68 110.4zM1008 755.2h157.44c34.24 0.32 66.56-16.64 85.44-45.44v0l94.080-140.16h-336.96v185.6zM322.88 12.8v0c-74.24 0-134.4 60.16-134.4 134.4s60.16 134.4 134.4 134.4 134.4-60.16 134.4-134.4-60.16-134.4-134.4-134.4zM1166.4 12.8v0c-74.24 0-134.4 60.16-134.4 134.4s60.16 134.4 134.4 134.4 134.4-60.16 134.4-134.4c-0.32-74.24-60.48-134.4-134.4-134.4zM1478.4 172.8h-128.32c-13.12 91.2-91.52 159.040-183.68 159.040s-170.56-67.84-183.68-159.040h-476.16c-13.12 91.2-91.52 159.040-183.68 159.040s-170.56-67.84-183.68-159.040h-88v736h804.8c26.88 0 52.8-10.88 71.68-30.080s29.44-45.12 29.12-72.32v-262.080c0-14.080 12.8-25.92 27.2-25.92h404.16l58.88-56c20.16-19.2 31.68-45.76 31.68-73.6l-0.32-216z" />
<glyph unicode="&#xe90f;" glyph-name="gestionar_reservas" d="M397.8 453c60.2 0 109.2 49 109.2 109.2-0.2 60.2-49.2 109.2-109.2 109.2-60.2 0-109.2-49-109.2-109.2s49-109.2 109.2-109.2zM397.8 649.6c48 0 87.2-39 87.2-87.2-0.2-48.2-39.2-87.2-87.2-87.2s-87.2 39-87.2 87.2c0 48 39 87.2 87.2 87.2zM397.8 450c-61.8 0-112.2 50.4-112.2 112.2s50.4 112.2 112.2 112.2c61.6 0 112-50.4 112.2-112.2 0-61.8-50.4-112.2-112.2-112.2zM397.8 668.4c-58.6 0-106.2-47.6-106.2-106.2s47.6-106.2 106.2-106.2 106.2 47.6 106.2 106.2c-0.2 58.6-47.8 106.2-106.2 106.2zM397.8 472.2c-49.8 0-90.2 40.4-90.2 90.2s40.4 90.2 90.2 90.2 90.2-40.4 90.2-90.2c-0.2-49.8-40.6-90.2-90.2-90.2zM397.8 646.6c-46.4 0-84.2-37.8-84.2-84.2s37.8-84.2 84.2-84.2c46.2 0 84 37.8 84.2 84.2 0 46.4-37.8 84.2-84.2 84.2zM408.8 562.2c0-6.075-4.925-11-11-11s-11 4.925-11 11c0 6.075 4.925 11 11 11s11-4.925 11-11zM397.8 548.2c-7.8 0-14 6.2-14 14s6.2 14 14 14 14-6.2 14-14-6.2-14-14-14zM397.8 570.2c-4.4 0-8-3.6-8-8s3.6-8 8-8c4.4 0 8 3.6 8 8s-3.6 8-8 8zM964 407h-297.6l6.8 13.2c10.2 19.6 18.2 40.4 23.8 61.6l1.8 6.6h76.6c6 0 11 5 11 11v126c0 6-5 11-11 11h-76.4l-1.8 6.6c-7 26-17.2 50.8-30.8 74l-3.4 6 54.2 54.2c2 2 3.2 4.8 3.2 7.8s-1.2 5.6-3.2 7.8l-89.2 88.8c-4.2 4.2-11.2 4.2-15.6 0l-54.2-54.2-6 3.4c-23.2 13.4-48.2 23.8-74 30.8l-6.6 1.8v76.6c0 6-5 11-11 11h-126c-6 0-11-5-11-11v-76.4l-6.6-1.8c-26-7-50.8-17.2-74-30.8l-6-3.4-54 54c-2 2-4.8 3.2-7.8 3.2s-5.6-1.2-7.8-3.2l-89-89c-2-2-3.2-4.8-3.2-7.8s1.2-5.8 3.2-7.8l54.2-54.2-3.4-6c-13.4-23.2-23.8-48.2-30.8-74l-1.8-6.6h-76.6c-6 0-11-5-11-11v-126c0-6 5-11 11-11h76.4l1.8-6.6c7-25.8 17.2-50.8 30.8-74l3.4-6-54.2-54.2c-2-2-3.2-4.8-3.2-7.8s1.2-5.6 3.2-7.8l89-89c2-2 4.8-3.2 7.8-3.2s5.6 1.2 7.8 3.2l54.2 54.2 6-3.4c23.2-13.4 48.2-23.8 74-30.8l6.6-1.8v-76.4c0-6 5-11 11-11h98.2v-177.6c0-28.2 22.8-51 51-51h480.2c28.2 0 51 22.8 51 51v360c0 28.2-22.8 51-51 51zM234.8 612.8c-1.4 2.6-3.8 4.4-6.8 5-2.8 0.8-5.8 0.4-8.4-1.2-2.6-1.4-4.4-3.8-5-6.8-4-15.6-6.2-31.6-6.2-47.8 0-104.2 84.8-189.2 189.2-189.2 8.6 0 17.2 0.6 26 1.8l12.2 1.6-2-12c-0.4-2.8-0.8-5.8-0.8-8.6v-160.4h-87.2v74.4c0 5.2-3.6 9.6-8.6 10.8-34 7.2-66.2 20.6-95.6 39.6-4.4 2.8-10.2 2.2-13.8-1.4l-52.6-52.6-73.4 73.4 52.6 52.6c3.6 3.6 4.2 9.4 1.4 13.8-19 29.4-32.4 61.6-39.6 95.6-1 5-5.6 8.6-10.8 8.6h-74.4v104h74.4c5.2 0 9.6 3.6 10.8 8.6 7.4 34 20.6 66.2 39.6 95.6 2.8 4.4 2.2 10.2-1.4 13.8l-52.8 52.8 73.4 73.4 52.6-52.6c3.6-3.6 9.4-4.2 13.8-1.4 29.4 19 61.6 32.4 95.6 39.6 5 1 8.6 5.6 8.6 10.8v74.4h104v-74.4c0-5.2 3.6-9.6 8.6-10.8 34-7.4 66.2-20.6 95.6-39.6 4.4-2.8 10.2-2.2 13.8 1.4l52.6 52.6 73.4-73.4-52.6-52.6c-3.6-3.6-4.2-9.4-1.4-13.8 19-29.4 32.4-61.6 39.6-95.6 1-5 5.6-8.6 10.8-8.6h74.4v-104h-74.4c-5.2 0-9.6-3.6-10.8-8.6-6.8-32-19-62.4-36.4-90.4l-2.4-4.2h-132.4l17.2 15.6c39.2 35.8 61.8 86.8 61.8 139.6 0 104.2-84.8 189.2-189.2 189.2-16.2 0-32.4-2-47.8-6.2-2.8-0.8-5.2-2.6-6.8-5s-1.8-5.4-1.2-8.4c0.8-2.8 2.6-5.2 5-6.8 2.6-1.4 5.4-1.8 8.4-1.2 13.8 3.6 28 5.4 42.4 5.4 92.2 0 167.2-75 167.2-167.2s-75-167.2-167.2-167.2c-92.2 0-167.2 75-167.2 167.2 0 14.4 1.8 28.6 5.4 42.4 0.8 2.8 0.4 5.8-1.2 8.4zM993-4c0-16-13-29-29-29h-480c-16 0-29 13-29 29v360c0 16 13 29 29 29h480c16 0 29-13 29-29v-360zM964-58h-480.2c-29.8 0-54 24.2-54 54v174.6h-95.2c-7.8 0-14 6.2-14 14v74.2l-4.4 1.2c-26.2 7-51.2 17.6-74.8 31l-4 2.2-52.6-52.6c-3-2.8-6.4-4-10-4-3.8 0-7.4 1.4-10 4l-88.8 89c-2.8 3-4 6.4-4 10 0 3.8 1.4 7.4 4 10l52.6 52.6-2.2 4c-13.4 22.8-23.8 48-31 74.6l-1.2 4.4h-74.2c-7.8 0-14 6.2-14 14v126c0 7.8 6.2 14 14 14h74.4l1.2 4.4c7 26.2 17.6 51.2 31 74.8l2.2 4-52.6 52.4c-2.6 2.6-4 6.2-4 10s1.4 7.4 4 10l89 89c3 2.8 6.4 4 10 4 3.8 0 7.4-1.4 10-4l52.4-52.4 4 2.2c23 13.4 48.2 24 74.6 31l4.4 1.2v74.2c0 7.8 6.2 14 14 14h126c7.8 0 14-6.2 14-14v-74.4l4.4-1.2c26.2-7 51.2-17.6 74.8-31l4-2.2 52.6 52.6c5.6 5.4 14.6 5.4 19.8 0l89.2-88.8c2.8-3 4-6.4 4-10 0-3.8-1.4-7.4-4-10l-52.6-52.6 2.2-4c13.4-23 24-48.2 31-74.6l1.2-4.4h74.2c7.8 0 14-6.2 14-14v-126c0-7.8-6.2-14-14-14h-74.4l-1.2-4.4c-5.6-21.6-13.8-42.6-24-62.2l-4.6-8.8h292.8c29.8 0 54-24.2 54-54v-360c0-29.8-24.2-54-54-54zM236.4 300.8l8-4.6c23-13.2 47.6-23.6 73.4-30.6l8.8-2.4v-78.6c0-4.4 3.6-8 8-8h101.2v-180.6c0-26.4 21.6-48 48-48h480.2c26.4 0 48 21.6 48 48v360c0 26.4-21.6 48-48 48h-302.6l9 17.6c10 19.4 18 39.8 23.6 61l2.4 8.8h78.8c4.4 0 8 3.6 8 8v126c0 4.4-3.6 8-8 8h-78.6l-2.4 8.8c-7 26-17.2 50.8-30.4 73.2l-4.6 8 55.8 55.8c1.4 1.4 2.4 3.6 2.4 5.6s-0.8 4-2.4 5.8l-89 88.6c-3 3-8.2 3-11.4 0l-55.8-55.8-8 4.6c-23 13.2-47.6 23.6-73.4 30.6l-8.8 2.4v79c0 4.4-3.6 8-8 8h-126c-4.4 0-8-3.6-8-8v-78.6l-8.8-2.4c-26-7-50.8-17.2-73.2-30.4l-8-4.6-55.8 55.4c-1.4 1.4-3.6 2.4-5.6 2.4s-4-0.8-5.8-2.4l-88.8-89c-1.4-1.4-2.4-3.6-2.4-5.6s0.8-4.2 2.4-5.6l55.8-55.8-4.6-8c-13.2-23-23.6-47.6-30.6-73.4l-2.4-8.8h-78.8c-4.4 0-8-3.6-8-8v-126c0-4.4 3.6-8 8-8h78.6l2.4-8.8c7.2-26.2 17.4-51 30.4-73.2l4.6-8-55.8-55.8c-1.4-1.4-2.4-3.6-2.4-5.6s0.8-4 2.4-5.8l89-88.8c1.4-1.4 3.6-2.4 5.6-2.4s4 0.8 5.8 2.4l55.8 55.6zM964-36h-480c-17.6 0-32 14.4-32 32v360c0 17.6 14.4 32 32 32h480c17.6 0 32-14.4 32-32v-360c0-17.6-14.4-32-32-32zM484 382c-14.4 0-26-11.6-26-26v-360c0-14.4 11.6-26 26-26h480c14.4 0 26 11.6 26 26v360c0 14.4-11.6 26-26 26h-480zM436 192.2h-93.2v77.4c0 3.8-2.6 7-6.4 7.8-34.2 7.2-66.6 20.6-96.6 40-3.2 2-7.4 1.6-10-1l-54.8-54.8-77.6 77.6 54.8 54.8c2.6 2.6 3 6.8 1 10-19.2 29.8-32.8 62.4-40 96.6-0.8 3.6-4 6.2-7.8 6.2h-77.4v110h77.4c3.8 0 7 2.6 7.8 6.2 7.6 34.6 21 67.2 40 96.6 2 3.2 1.6 7.4-1 10l-54.8 55.2 77.6 77.6 54.8-54.8c2.6-2.6 6.8-3 10-1 29.8 19.2 62.4 32.8 96.6 40 3.6 0.8 6.2 4 6.2 7.8v77.6h110v-77.4c0-3.8 2.6-7 6.4-7.8 34.6-7.6 67.2-21 96.6-40 3.2-2 7.4-1.6 10 1l54.8 54.8 77.6-77.6-54.8-55c-2.6-2.6-3-6.8-1-10 19.2-29.8 32.8-62.4 40-96.6 0.8-3.6 4-6.2 7.8-6.2h77.4v-110h-77.4c-3.8 0-7-2.6-7.8-6.4-6.8-32.4-19.2-63-36.8-91.2l-3.2-5.6h-142l23 20.8c38.6 35.2 60.8 85.4 60.8 137.4 0 102.6-83.6 186.2-186.2 186.2-16.4 0-32.2-2-47-6-2-0.6-3.8-2-5-3.8s-1.2-4.2-0.8-6c0.6-2 1.8-3.8 3.6-5 2-1 4-1.2 6.2-0.8 13.8 3.6 28.4 5.4 43 5.4 93.8 0 170.2-76.4 170.2-170.2s-76.4-170.2-170.2-170.2-170.2 76.4-170.2 170.2c0 14.6 1.8 29.2 5.4 43.2 0.6 2 0.2 4.2-0.8 6v0.2c-1 1.8-2.6 3-4.8 3.4h-0.2c-2 0.6-4.2 0.2-6-0.8-2-1-3.2-2.8-3.6-4.8-4-16-6.2-31.8-6.2-47.2 0-102.6 83.6-186.2 186.2-186.2 8.4 0 16.8 0.6 25.6 1.8l16.2 2.2-2.6-16c-0.4-2.8-0.8-5.6-0.8-8.2v-163.4zM348.8 198.2h81.2v157.4c0 3 0.4 6 0.8 9l1.4 8-8.2-1c-9-1.2-17.6-1.8-26.4-1.8-106 0-192.2 86.2-192.2 192.2 0 16 2.2 32.2 6.2 48.6 0.8 3.8 3 6.8 6.4 8.6 3.2 2 7 2.4 10.6 1.4 3.8-0.8 6.8-3 8.6-6.4 2-3.2 2.6-7 1.4-10.8-3.6-13.4-5.2-27.4-5.2-41.6 0-90.6 73.6-164.2 164.2-164.2s164.4 73.8 164.4 164.4-73.6 164.2-164.2 164.2c-14.2 0-28.2-1.8-41.6-5.4-3.8-0.8-7.4-0.2-10.6 1.4l-0.2 0.2c-3 2-5.2 5-6.2 8.4v0.2c-0.8 4.2-0.2 7.8 1.6 10.6 2 3 5 5.2 8.4 6.2 15.4 4.2 31.8 6.4 48.6 6.4 106 0 192.2-86.2 192.2-192.2 0-53.6-22.8-105.4-62.8-141.8l-11.4-10.4h122.8l1.6 2.6c17.2 27.6 29.4 57.8 36 89.6 1.6 6.4 7.2 11 13.8 11h71.4v98h-71.4c-6.6 0-12.4 4.6-13.8 11-7 33.4-20.2 65.4-39.2 94.6-3.6 5.6-2.8 13 1.8 17.6l50.4 50.4-69 69.4-50.4-50.4c-4.6-4.6-12-5.4-17.6-1.8-28.8 18.6-60.6 31.8-94.6 39.2-6.4 1.6-11 7.2-11 13.8v71.2h-98v-71.4c0-6.6-4.6-12.4-11-13.8-33.4-7-65.4-20.2-94.6-39.2-5.6-3.6-13-2.8-17.6 1.8l-50.4 50.6-69.2-69.2 50.6-50.6c4.6-4.6 5.4-12 1.8-17.6-18.4-28.8-31.6-60.6-39-94.6-1.6-6.4-7.2-11-13.8-11h-71.4v-98h71.4c6.6 0 12.4-4.6 13.8-11 7-33.4 20.2-65.4 39.2-94.6 3.6-5.6 2.8-13-1.8-17.6l-50.6-50.4 69.2-69.2 50.4 50.4c4.6 4.6 12 5.4 17.6 1.8 29.2-19 61-32 94.6-39.2 6.4-1.6 11-7.2 11-13.8v-71.2zM741 284l-6 2.2v29.8c0 6-5 11-11 11s-11-5-11-11v-29.8l-6-2.2c-20.4-7.2-34-26.6-34-48v-40c0-21.6 13.6-40.8 34-48l6-2.2v-109.8c0-6 5-11 11-11s11 5 11 11v109.8l6 2.2c20.4 7.2 34 26.4 34 48v40c0 21.6-13.6 40.8-34 48zM753 196c0-16-13-29-29-29s-29 13-29 29v40c0 16 13 29 29 29s29-13 29-29v-40zM724 22c-7.8 0-14 6.2-14 14v107.8l-4 1.4c-21.4 7.6-36 28-36 50.8v40c0 22.8 14.4 43.2 36 50.8l4 1.4v27.8c0 7.8 6.2 14 14 14s14-6.2 14-14v-27.8l4-1.4c21.6-7.6 36-28 36-50.8v-40c0-22.8-14.4-43.2-36-50.8l-4-1.4v-107.8c0-7.8-6.2-14-14-14zM724 324c-4.4 0-8-3.6-8-8v-31.8l-8-3c-19.2-6.8-32-25-32-45.2v-40c0-20.2 12.8-38.4 32-45.2l8-3v-111.8c0-4.4 3.6-8 8-8s8 3.6 8 8v111.8l8 3c19.2 6.8 32 25 32 45.2v40c0 20.2-12.8 38.4-32 45.2v0l-8 3v31.8c0 4.4-3.6 8-8 8zM724 164c-17.6 0-32 14.4-32 32v40c0 17.6 14.4 32 32 32s32-14.4 32-32v-40c0-17.6-14.4-32-32-32zM724 262c-14.4 0-26-11.6-26-26v-40c0-14.4 11.6-26 26-26s26 11.6 26 26v40c0 14.4-11.6 26-26 26zM901 204l-6 2.2v109.8c0 6-5 11-11 11s-11-5-11-11v-109.8l-6-2.2c-20.4-7.2-34-26.6-34-48v-40c0-21.6 13.6-40.8 34-48l6-2.2v-29.8c0-6 5-11 11-11s11 5 11 11v29.8l6 2.2c20.4 7.2 34 26.4 34 48v40c0 21.6-13.6 40.8-34 48zM913 116c0-16-13-29-29-29s-29 13-29 29v40c0 16 13 29 29 29s29-13 29-29v-40zM884 22c-7.8 0-14 6.2-14 14v27.8l-4 1.4c-21.4 7.6-36 28-36 50.8v40c0 22.8 14.4 43.2 36 50.8l4 1.4v107.8c0 7.8 6.2 14 14 14s14-6.2 14-14v-107.8l4-1.4c21.6-7.6 36-28 36-50.8v-40c0-22.8-14.4-43.2-36-50.8l-4-1.4v-27.8c0-7.8-6.2-14-14-14zM884 324c-4.4 0-8-3.6-8-8v-111.8l-8-3c-19.2-6.8-32-25-32-45.2v-40c0-20.2 12.8-38.4 32-45.2l8-3v-31.8c0-4.4 3.6-8 8-8s8 3.6 8 8v31.8l8 3c19.2 6.8 32 25 32 45.2v40c0 20.2-12.8 38.4-32 45.2v0l-8 3v111.8c0 4.4-3.6 8-8 8zM884 84c-17.6 0-32 14.4-32 32v40c0 17.6 14.4 32 32 32s32-14.4 32-32v-40c0-17.6-14.4-32-32-32zM884 182c-14.4 0-26-11.6-26-26v-40c0-14.4 11.6-26 26-26s26 11.6 26 26v40c0 14.4-11.6 26-26 26zM581 204l-6 2.2v109.8c0 6-5 11-11 11s-11-5-11-11v-109.8l-6-2.2c-20.4-7.2-34-26.6-34-48v-40c0-21.6 13.6-40.8 34-48l6-2.2v-29.8c0-6 5-11 11-11s11 5 11 11v29.8l6 2.2c20.4 7.2 34 26.4 34 48v40c0 21.6-13.6 40.8-34 48zM593 116c0-16-13-29-29-29s-29 13-29 29v40c0 16 13 29 29 29s29-13 29-29v-40zM564 22c-7.8 0-14 6.2-14 14v27.8l-4 1.4c-21.4 7.6-36 28-36 50.8v40c0 22.8 14.4 43.2 36 50.8l4 1.4v107.8c0 7.8 6.2 14 14 14s14-6.2 14-14v-107.8l4-1.4c21.6-7.6 36-28 36-50.8v-40c0-22.8-14.4-43.2-36-50.8l-4-1.4v-27.8c0-7.8-6.2-14-14-14zM564 324c-4.4 0-8-3.6-8-8v-111.8l-8-3c-19.2-6.8-32-25-32-45.2v-40c0-20.2 12.8-38.4 32-45.2l8-3v-31.8c0-4.4 3.6-8 8-8s8 3.6 8 8v31.8l8 3c19.2 6.8 32 25 32 45.2v40c0 20.2-12.8 38.4-32 45.2v0l-8 3v111.8c0 4.4-3.6 8-8 8zM564 84c-17.6 0-32 14.4-32 32v40c0 17.6 14.4 32 32 32s32-14.4 32-32v-40c0-17.6-14.4-32-32-32zM564 182c-14.4 0-26-11.6-26-26v-40c0-14.4 11.6-26 26-26s26 11.6 26 26v40c0 14.4-11.6 26-26 26z" />
<glyph unicode="&#xe910;" glyph-name="google" d="M1015 543.6h-491.8v-202.6h273.8c-24.6-65.8-71.4-120.8-131.2-155.8v0 0c-45-26.4-97.6-41.6-153.8-41.6-130.6 0-241.8 82.2-285 197.6v0 0c-12.4 33.2-19.2 69.2-19.4 106.8 0 34.6 5.8 68 16.4 99v0 0c41 119.6 154.4 205.4 288 205.4 59.2 0 114.2-16.8 161-46l165.8 135.8c-88.6 73.6-202.6 117.8-326.8 117.8-197.8 0-369.6-112.2-454.8-276.6-36.6-70.4-57.2-150.4-57.2-235.4 0-87.8 22-170.4 61-242.6v0 0c86.4-160.4 256-269.4 451-269.4 121.4 0 232.8 42.2 320.6 112.8v0 0 0 0c90.2 72.6 155.4 175 180.2 292.4 7.4 34.4 11.2 70.2 11.2 107 0 32.4-3 64.4-9 95.4z" />
<glyph unicode="&#xe911;" glyph-name="grafico-de-barras" d="M976.8-58c7.8 0 14 6.2 14 14s-6.2 14-14 14h-49.8v643c0 26.4-21.4 47.8-47.8 47.8h-98c-26.4 0-47.8-21.4-47.8-47.8v-643h-123.4v354.4c0 26.4-21.4 47.8-47.8 47.8h-98c-26.4 0-47.8-21.4-47.8-47.8v-354.4h-123.4v186.4c0 26.4-21.4 47.8-47.8 47.8h-98c-26.4 0-47.8-21.4-47.8-47.8v-186.4h-52.2c-7.8 0-14-6.2-14-14s6.2-14 14-14h929.6zM761.4 613c0 10.8 8.8 19.8 19.8 19.8h98c10.8 0 19.8-8.8 19.8-19.8v-643h-137.6v643zM444.4 324.4c0 10.8 8.8 19.8 19.8 19.8h98c10.8 0 19.8-8.8 19.8-19.8v-354.4h-137.6v354.4zM127.4 156.4c0 10.8 8.8 19.8 19.8 19.8h98c10.8 0 19.8-8.8 19.8-19.8v-186.4h-137.6v186.4zM922.8 950c-2.8 2.8-6.6 4.2-10.6 4h-122.2c-7.8 0-14-6.2-14-14s6.2-14 14-14h89.2l-212.2-212.2-78.8 78.8c-2.6 2.6-6.2 4.2-9.8 4.2-3.8 0-7.2-1.4-10-4.2l-359.6-359.6c-5.4-5.4-5.4-14.4 0-19.8 2.6-2.6 6.2-4 9.8-4 3.8 0 7.2 1.4 9.8 4l349.8 349.8 78.8-78.8c5.4-5.4 14.4-5.4 19.8 0l222 222v-82.2c0-7.8 6.2-14 14-14s14 6.2 14 14v115.2c0.2 4.2-1.2 7.8-4 10.8z" />
<glyph unicode="&#xe912;" glyph-name="instagram" d="M746.8 960h-469.6c-152.8 0-277.2-124.4-277.2-277.2v-469.6c0-152.8 124.4-277.2 277.2-277.2h469.6c152.8 0 277.2 124.4 277.2 277.2v469.6c0 152.8-124.4 277.2-277.2 277.2zM964 213.2c0-119.8-97.4-217.2-217.2-217.2h-469.6c-119.8 0-217.2 97.4-217.2 217.2v469.6c0 119.8 97.4 217.2 217.2 217.2h469.6c119.8 0 217.2-97.4 217.2-217.2v-469.6zM512 728c-154.4 0-280-125.6-280-280s125.6-280 280-280 280 125.6 280 280-125.6 280-280 280zM512 228c-121.2 0-220 98.6-220 220 0 121.2 98.6 220 220 220 121.2 0 220-98.6 220-220 0-121.2-98.8-220-220-220zM798.6 827.4c-45.6 0-82.8-37.2-82.8-82.8s37.2-82.8 82.8-82.8 82.8 37.2 82.8 82.8-37 82.8-82.8 82.8zM798.6 722c-12.6 0-22.8 10.2-22.8 22.8s10.2 22.8 22.8 22.8c12.6 0 22.8-10.2 22.8-22.8s-10.2-22.8-22.8-22.8z" />
<glyph unicode="&#xe913;" glyph-name="logout" d="M671.249 707.289c0 67.459-54.928 122.387-122.387 122.387h-419.165c-67.459-0.209-122.387-54.928-122.387-122.387v-518.37c0-67.459 54.928-122.387 122.387-122.387h418.957c67.459 0 122.387 54.928 122.387 122.387v83.958c0 10.234-8.145 18.379-18.379 18.379s-18.379-8.145-18.379-18.379v-83.958c0-47.409-38.429-85.838-85.838-85.838h-418.748c-47.409 0-85.838 38.429-85.838 85.838v518.37c0 47.2 38.429 85.629 85.838 85.629h418.957c47.409 0 85.838-38.429 85.838-85.838v-83.958c0-10.234 8.145-18.379 18.379-18.379s18.379 8.145 18.379 18.379v84.167zM810.136 259.929c3.55-3.55 7.936-5.43 12.949-5.43s9.398 1.88 12.949 5.43l175.227 175.227c3.55 3.55 5.43 8.145 5.43 12.949s-1.88 9.398-5.43 12.949l-175.227 175.227c-7.101 7.101-18.588 7.101-25.898 0-7.101-7.101-7.101-18.588 0-25.898l144.108-144.108h-497.694c-10.234 0-18.379-8.145-18.379-18.379s8.145-18.379 18.379-18.379h497.694l-144.108-144.108c-3.55-3.342-5.43-7.936-5.43-12.74s1.88-9.189 5.43-12.74v0z" />
<glyph unicode="&#xe914;" glyph-name="lupa" d="M1014.918-11.778l-248.848 248.848c66.753 76.743 107.168 176.873 107.168 286.311 0 240.901-195.718 436.619-436.392 436.619-240.901 0-436.619-195.945-436.619-436.619s195.945-436.619 436.619-436.619c109.439 0 209.568 40.415 286.311 107.168l248.621-248.848c5.903-5.903 13.85-9.082 21.57-9.082s15.667 2.952 21.57 9.082c12.034 11.807 12.034 31.333 0 43.14zM61.304 523.381c0 207.071 168.245 375.315 375.315 375.315s375.315-168.472 375.315-375.315-168.245-375.542-375.315-375.542c-206.843 0-375.315 168.472-375.315 375.542z" />
<glyph unicode="&#xe915;" glyph-name="mapa-de-ubicacion" horiz-adv-x="1063" d="M998.538 534.902h-210.557c-10.627 0-19.262-8.635-19.262-19.262s8.635-19.262 19.262-19.262h175.796l56.016-521.631h-975.955l65.757 521.631h176.017c10.627 0 19.262 8.635 19.262 19.262s-8.635 19.262-19.262 19.262h-210.114l-75.499-598.902h1062.746l-64.208 598.902zM514.768 226.705c-2.878-1.771-5.978-3.1-8.635-4.871-4.207-2.657-8.413-5.535-12.399-8.635-8.635-6.421-10.406-18.377-4.207-27.011 3.764-5.092 9.742-7.971 15.498-7.971 3.985 0 7.971 1.107 11.513 3.764 3.542 2.435 6.864 4.871 10.627 7.306 6.199 3.985 12.842 7.749 19.484 11.292 9.078 4.65 12.62 15.277 8.856 24.576 0.221 0.221 0.443 0.221 0.443 0.443 34.982 36.975 152.77 175.796 201.479 406.722 9.963 46.938 12.177 91.883 6.642 133.729-16.384 126.865-95.204 193.951-228.048 193.951-132.622 0-211.442-67.086-228.269-194.173-5.535-41.846-3.321-86.791 6.642-133.729 48.488-228.712 164.283-366.869 200.372-405.393zM346.278 760.735c14.17 108.046 76.385 160.519 189.966 160.519s175.796-52.473 189.966-160.519c4.871-37.418 2.878-78.156-6.199-120.666-43.838-207.678-148.342-339.414-183.766-379.489-35.425 40.074-139.928 171.811-183.766 379.489-9.078 42.731-11.070 83.248-6.199 120.666zM536.244 594.46c78.156 0 141.921 63.543 141.921 141.921s-63.543 141.921-141.921 141.921-141.921-63.543-141.921-141.921 63.543-141.921 141.921-141.921zM536.244 839.555c56.901 0 103.175-46.274 103.175-103.175s-46.274-103.175-103.175-103.175-103.175 46.274-103.175 103.175 46.052 103.175 103.175 103.175zM607.094 261.245c-10.406-2.214-17.048-12.399-14.834-23.026 1.993-9.078 9.963-15.277 18.819-15.277 1.328 0 2.657 0.221 3.985 0.443 11.292 2.435 23.69 4.428 36.532 5.978 10.627 1.328 18.155 10.849 16.827 21.476s-10.849 18.155-21.476 16.827c-14.17-1.55-27.454-3.764-39.853-6.421zM706.947 253.495c0.443-10.406 9.078-18.377 19.262-18.377 0.221 0 0.664 0 0.886 0l38.746 1.55c10.627 0.443 18.819 9.52 18.377 20.148s-10.406 19.041-20.148 18.377l-38.525-1.55c-10.849-0.443-19.041-9.52-18.598-20.148zM433.29 164.712c-9.963-7.528-20.148-14.613-30.554-21.476-8.856-5.757-11.513-17.712-5.757-26.79 3.764-5.757 9.963-8.856 16.163-8.856 3.542 0 7.306 1.107 10.406 3.1 11.070 7.085 22.141 14.834 32.768 23.026 8.413 6.421 10.185 18.598 3.764 27.011-6.199 8.635-18.155 10.406-26.79 3.985zM863.924 292.020c-6.421-4.65-15.056-7.971-25.904-10.185-10.406-2.214-17.27-12.399-15.056-22.805 1.993-9.078 9.963-15.498 18.819-15.498 1.328 0 2.657 0.221 3.985 0.443 16.163 3.321 29.447 8.635 40.517 16.384l2.657 1.993c8.413 6.421 10.185 18.598 3.764 27.011s-18.598 10.185-27.011 3.764l-1.771-1.107zM171.146 141.021c2.878 10.406-3.321 20.812-13.506 23.69s-20.812-3.321-23.69-13.506c-2.435-8.856-3.985-18.155-4.428-27.233 0-2.214-0.221-4.428-0.221-6.864 0-3.764 0.221-7.528 0.664-11.292 1.107-9.963 9.299-17.27 19.262-17.27 0.664 0 1.328 0 1.993 0 10.627 1.107 18.377 10.627 17.27 21.255-0.221 2.435-0.443 5.092-0.443 7.528 0 1.55 0 3.1 0.221 4.871 0.221 5.978 1.107 12.399 2.878 18.819zM863.481 442.133c-15.277 1.993-30.997 0.886-46.052-3.542-10.185-2.878-16.163-13.506-13.284-23.912 2.435-8.413 10.185-14.17 18.598-14.17 1.771 0 3.542 0.221 5.314 0.664 9.963 2.878 20.369 3.764 30.333 2.435 10.849-1.328 20.369 5.978 21.698 16.605 1.328 10.849-6.199 20.591-16.605 21.919zM901.784 346.486c-3.1-10.185 2.657-21.034 12.842-24.133 1.993-0.664 3.764-0.886 5.757-0.886 8.192 0 15.941 5.314 18.377 13.727 1.993 6.199 3.1 12.399 3.542 18.598 0 1.55 0.221 3.321 0.221 4.871 0 9.078-1.771 18.155-4.871 26.79-3.764 9.963-14.834 15.056-24.797 11.292s-15.056-14.834-11.292-24.797c1.771-4.428 2.435-9.078 2.435-13.506v-2.214c-0.443-3.1-1.107-6.421-2.214-9.742zM337.643 106.925c-11.292-5.314-22.805-10.185-34.318-14.613-9.963-3.764-14.834-15.056-11.070-25.019 2.878-7.749 10.185-12.399 17.934-12.399 2.214 0 4.65 0.443 6.864 1.328 12.177 4.65 24.576 9.963 36.753 15.72 9.742 4.428 13.727 15.941 9.299 25.683-4.207 9.742-15.72 13.949-25.462 9.299zM197.051 187.295c3.1 0 6.199 0.664 9.299 2.435 5.535 3.1 11.513 4.871 17.491 5.535 2.657 0.221 5.314 0.221 7.749 0 10.849-1.328 20.369 5.978 21.698 16.605s-5.978 20.369-16.605 21.698c-5.757 0.664-11.513 0.886-17.27 0.221-11.070-1.107-21.698-4.65-31.882-9.963-9.299-5.092-12.842-16.827-7.749-26.126 3.764-6.642 10.406-10.406 17.27-10.406zM193.066 35.854c4.207-1.107 8.413-1.993 12.62-2.435 4.871-0.664 9.963-0.886 14.834-0.886 5.978 0 12.177 0.443 18.155 1.107 10.627 1.328 18.155 11.070 16.827 21.476s-10.849 17.934-21.476 16.827c-7.749-1.107-15.72-1.328-23.469-0.221-2.657 0.221-5.092 0.886-7.528 1.55-10.406 2.657-20.812-3.542-23.469-13.727-3.1-10.406 3.1-21.034 13.506-23.69z" />
<glyph unicode="&#xe916;" glyph-name="mas_derecha" d="M635.093 448l-283.947-283.947c-7.040-7.040-7.040-18.133 0-25.173s18.133-7.040 25.173 0l296.533 296.533c7.040 7.040 7.040 18.133 0 25.173l-296.533 296.533c-3.413 3.413-8.107 5.333-12.587 5.333s-9.173-1.707-12.587-5.333c-7.040-7.040-7.040-18.133 0-25.173l283.947-283.947zM512-64c-136.747 0-265.387 53.333-362.027 149.973s-149.973 225.28-149.973 362.027c0 136.747 53.333 265.387 149.973 362.027s225.28 149.973 362.027 149.973c136.747 0 265.387-53.333 362.027-149.973s149.973-225.28 149.973-362.027c0-136.747-53.333-265.387-149.973-362.027s-225.28-149.973-362.027-149.973zM512 930.987c-266.24 0-482.987-216.747-482.987-482.987s216.747-482.987 482.987-482.987 482.987 216.747 482.987 482.987-216.747 482.987-482.987 482.987z" />
<glyph unicode="&#xe917;" glyph-name="mas_derecha_color" d="M512 959.787c-282.667 0-512-229.12-512-511.787s229.12-512 512-512 512 229.12 512 512-229.333 511.787-512 511.787zM672.853 435.413l-296.533-296.533c-7.040-7.040-18.133-7.040-25.173 0s-7.040 18.133 0 25.173l283.947 283.947-283.947 283.947c-7.040 7.040-7.040 18.133 0 25.173 3.413 3.627 8.107 5.333 12.587 5.333s9.173-1.92 12.587-5.333l296.533-296.533c7.040-7.040 7.040-18.133 0-25.173z" />
<glyph unicode="&#xe918;" glyph-name="mas_izquierda" d="M388.907 448l283.947 283.947c7.040 7.040 7.040 18.133 0 25.173s-18.133 7.040-25.173 0l-296.533-296.533c-7.040-7.040-7.040-18.133 0-25.173l296.533-296.533c3.413-3.413 8.107-5.333 12.587-5.333s9.173 1.707 12.587 5.333c7.040 7.040 7.040 18.133 0 25.173l-283.947 283.947zM512-64c-136.747 0-265.387 53.333-362.027 149.973s-149.973 225.28-149.973 362.027c0 136.747 53.333 265.387 149.973 362.027s225.28 149.973 362.027 149.973c136.747 0 265.387-53.333 362.027-149.973s149.973-225.28 149.973-362.027c0-136.747-53.333-265.387-149.973-362.027s-225.28-149.973-362.027-149.973zM512 930.987c-266.24 0-482.987-216.747-482.987-482.987s216.747-482.987 482.987-482.987 482.987 216.747 482.987 482.987-216.747 482.987-482.987 482.987z" />
<glyph unicode="&#xe919;" glyph-name="mas_izquierda_color" d="M512-64c282.667 0 512 229.12 512 512s-229.333 511.787-512 511.787-512-229.12-512-511.787 229.333-512 512-512zM351.147 460.373l296.533 296.533c7.040 7.040 18.133 7.040 25.173 0s7.040-18.133 0-25.173l-283.947-283.947 283.947-283.947c7.040-7.040 7.040-18.133 0-25.173-3.413-3.627-8.107-5.333-12.587-5.333s-9.173 1.92-12.587 5.333l-296.533 296.533c-7.040 7.040-7.040 18.133 0 25.173z" />
<glyph unicode="&#xe91a;" glyph-name="menu" horiz-adv-x="1164" d="M0 960h1163.636v-46.545h-1163.636v46.545zM0 634.182h1163.636v-46.545h-1163.636v46.545zM0 308.364h1163.636v-46.545h-1163.636v46.545zM0-17.455h1163.636v-46.545h-1163.636v46.545z" />
<glyph unicode="&#xe91b;" glyph-name="objetivo" d="M1006.933 465.067h-34.56c-8.747 240.427-202.88 434.56-443.307 443.307v34.56c0 9.387-7.68 17.067-17.067 17.067s-17.067-7.68-17.067-17.067v-34.56c-240.427-8.747-434.56-202.88-443.307-443.307h-34.56c-9.387 0-17.067-7.68-17.067-17.067s7.68-17.067 17.067-17.067h34.56c8.747-240.427 202.88-434.56 443.307-443.307v-34.56c0-9.387 7.68-17.067 17.067-17.067s17.067 7.68 17.067 17.067v34.56c240.427 8.747 434.56 202.88 443.307 443.307h34.56c9.387 0 17.067 7.68 17.067 17.067s-7.68 17.067-17.067 17.067zM529.067 21.76v33.707c0 9.387-7.68 17.067-17.067 17.067s-17.067-7.68-17.067-17.067v-33.707c-221.653 8.747-400.427 187.52-409.173 409.173h33.707c9.387 0 17.067 7.68 17.067 17.067s-7.68 17.067-17.067 17.067h-33.707c8.747 221.653 187.52 400.427 409.173 409.173v-33.707c0-9.387 7.68-17.067 17.067-17.067s17.067 7.68 17.067 17.067v33.707c221.653-8.747 400.427-187.52 409.173-409.173h-33.707c-9.387 0-17.067-7.68-17.067-17.067s7.68-17.067 17.067-17.067h33.707c-8.747-221.653-187.52-400.427-409.173-409.173zM716.8 465.067h-86.613c-7.467 52.267-48.853 93.44-101.12 101.12v86.613c0 9.387-7.68 17.067-17.067 17.067s-17.067-7.68-17.067-17.067v-86.613c-52.267-7.467-93.44-48.853-101.12-101.12h-86.613c-9.387 0-17.067-7.68-17.067-17.067s7.68-17.067 17.067-17.067h86.613c7.467-52.267 48.853-93.44 101.12-101.12v-86.613c0-9.387 7.68-17.067 17.067-17.067s17.067 7.68 17.067 17.067v86.613c52.267 7.467 93.44 48.853 101.12 101.12h86.613c9.387 0 17.067 7.68 17.067 17.067s-7.68 17.067-17.067 17.067zM512 362.667c-47.147 0-85.333 38.187-85.333 85.333s38.187 85.333 85.333 85.333 85.333-38.187 85.333-85.333-38.187-85.333-85.333-85.333z" />
<glyph unicode="&#xe91c;" glyph-name="ojo_cont" d="M879 585.4c-203.4 203.4-534 203.4-737.4 0l-135.8-135.6 139.2-139.2c101.6-101.6 235.2-152.4 368.6-152.4s267 50.8 368.6 152.4l135.8 135.8-139 139zM858.2 334.8c-190-190-499-190-689 0l-115 115 111.6 111.6c190 190 499 190 689 0l115-115-111.6-111.6zM494.4 585.4c-66 0-119.8-53.6-119.8-119.8 0-9.4 7.6-17.2 17.2-17.2 9.4 0 17.2 7.6 17.2 17.2 0 47.2 38.4 85.6 85.6 85.6 9.4 0 17.2 7.6 17.2 17.2-0.2 9.2-8 17-17.4 17zM511.6 670.8c-122.6 0-222.4-99.8-222.4-222.4s99.8-222.4 222.4-222.4 222.2 100 222.2 222.6-99.6 222.2-222.2 222.2zM511.6 260.4c-103.8 0-188.2 84.4-188.2 188.2s84.4 188.2 188.2 188.2 188.2-84.4 188.2-188.2-84.6-188.2-188.2-188.2z" />
<glyph unicode="&#xe91d;" glyph-name="pagar_online" d="M446.6 890.8h-113.8c-8.4 0-15.2-6.8-15.2-15.2s6.8-15.2 15.2-15.2h113.8c8.4 0 15.2 6.8 15.2 15.2s-6.8 15.2-15.2 15.2zM965.4 278.6v309.2c0 44-35.8 80-80 80h-164.6v211.8c0 44.4-36 80.4-80.4 80.4h-501.4c-44.4 0-80.4-36-80.4-80.4v-863.2c0-44.4 36-80.4 80.4-80.4h501.6c44.4 0 80.4 36 80.4 80.4v14.8h164.6c44 0 80 35.8 80 80l-0.2 167.4zM640.4-33.6h-501.4c-27.6 0-50 22.4-50 50v64.8h601.4v-64.8c0-27.6-22.4-50-50-50zM690.4 111.6h-601.4v675h601.4v-675zM690.4 817.2h-601.4v62.4c0 27.6 22.4 50 50 50h501.6c27.6 0 50-22.4 50-50l-0.2-62.4zM935 111.2c0-27.4-22.2-49.6-49.6-49.6h-164.6v575.8h164.6c27.4 0 49.6-22.2 49.6-49.6v-476.6zM836.4 599.2c-8.4 0-15.2-6.8-15.2-15.2v-77c0-8.4 6.8-15.2 15.2-15.2s15.2 6.8 15.2 15.2v77c0 8.4-6.8 15.2-15.2 15.2zM836.4 338c-8.4 0-15.2-6.8-15.2-15.2v-77c0-8.4 6.8-15.2 15.2-15.2s15.2 6.8 15.2 15.2v77c0 8.4-6.8 15.2-15.2 15.2zM836.4 468.6c-8.4 0-15.2-6.8-15.2-15.2v-77c0-8.4 6.8-15.2 15.2-15.2s15.2 6.8 15.2 15.2v77c0 8.4-6.8 15.2-15.2 15.2zM836.4 207.4c-8.4 0-15.2-6.8-15.2-15.2v-77c0-8.4 6.8-15.2 15.2-15.2s15.2 6.8 15.2 15.2v77c0 8.4-6.8 15.2-15.2 15.2zM485 366c0 51.8-42.2 94-94 94-31.4 0-57.2 25.6-57.2 57.2 0 31.4 25.6 57.2 57.2 57.2 18.6 0 37.2-8.8 54.4-25.2 7.4-7 19-6.8 26 0.4 7 7.4 6.8 19-0.4 26-15 14.4-31.2 24.6-48.2 30.4l-13.2 4.4v58c0 10.2-8.2 18.4-18.4 18.4s-18.4-8.2-18.4-18.4v-58l-12.8-4.6c-37.4-13.2-62.6-48.8-62.6-88.6 0-51.8 42.2-94 94-94 31.4 0 57.2-25.6 57.2-57.2s-25.6-57.2-57.2-57.2c-22 0-44.6 12.6-63.8 35.4-3.4 4.2-8.6 6.6-14.2 6.6-4.4 0-8.6-1.6-11.8-4.4-3.8-3.2-6-7.6-6.6-12.6-0.4-5 1-9.6 4.2-13.4 17.6-21 38.6-36 60.4-43.4l13.2-4.4v-58c0-10.2 8.2-18.4 18.4-18.4s18.4 8.2 18.4 18.4v58l12.8 4.6c37.4 13.6 62.6 49.2 62.6 88.8z" />
<glyph unicode="&#xe91e;" d="M1002.518 448.001c0-276.838-224.421-501.259-501.259-501.259s-501.259 224.421-501.259 501.259c0 276.838 224.421 501.259 501.259 501.259s501.259-224.421 501.259-501.259z" />
<glyph unicode="&#xe91f;" d="M964.694 552.589c-0.062-7.406-4.604-11.784-12.010-11.866-9.534-0.082-19.088 0-28.644 0.020 0 0 0.736-79.382-0.286-119.074-1.208-47.978-26.782-80.61-72.998-93.376-39.078-10.802-78.584-10.72-117.212 2.394-39.302 13.34-60.886 41.532-65.286 82.86-0.614 5.892-0.798 11.784-0.798 17.698 0 47.282-0.020 94.584 0 141.864 0 21.318 6.342 27.948 27.6 28.888 11.518 0.512 23.038 0.982 34.432-1.166 10.618-1.984 16-8.040 17.002-18.864 0.388-4.072 0.572-8.184 0.594-12.256 0.020-47.446 0-94.89 0.020-142.314 0-13.38 3.764-24.898 16.49-31.59 6.24-3.274 13.054-4.706 20.050-5.36 10.926-1.024 21.768-0.942 32.55 1.268 18.25 3.724 27.742 14.854 28.418 33.512 0.040 1.37 0 2.742 0.020 4.092 0.062 48.96 0.102 97.918 0.204 146.856 0 2.722 0.266 5.462 0.696 8.142 1.474 9.35 7.12 14.67 16.286 16.552 5.176 1.064 10.454 1.126 15.692 1.37v-0.020h6.752c0 0-0.020 6.404 0.184 8.368 0.716 6.588 4.604 10.884 11.13 10.966 19.232 0.266 38.484 0.286 57.736 0.040 7.038-0.102 11.334-4.992 11.376-12.174 0.104-18.94 0.126-37.886 0.002-56.83z" />
<glyph unicode="&#xe920;" d="M924.096 540.785c-8.79 0.038-17.598 0.442-26.362 0.004-7.662-0.382-13.64 4.574-13.4 13.58 0.39 14.698 0.294 33.16 0.072 47.854 0 0 2.108-0.076 3.218-0.118 6.952-0.266 13.912-0.082 20.758-1.882 8.172-2.15 13.070-7.068 14.672-15.442 1.468-7.684 0.7-15.416 0.864-23.126 0.148-6.968 0.098-13.94 0.136-20.912-0.004-0.002 0.042 0.042 0.042 0.042z" />
<glyph unicode="&#xe921;" d="M61.132 451.763c0 33.946-0.014 67.89 0.014 101.836 0.006 6.366 0.304 12.73 1.812 18.952 4.262 17.566 16.72 28.344 35.928 29.082 31.626 1.214 63.33 2.242 94.892-0.862 20.218-1.988 38.668-8.868 52.438-24.884 9.896-11.512 14.668-25.294 16.762-40.074 2.79-19.682 2.494-39.264-2.956-58.54-7.626-26.964-26.008-42.476-52.62-49.078-11.97-2.97-24.18-3.92-36.488-3.91-22.276 0.020-44.554-0.098-66.828 0.12-4.104 0.040-5.020-1.158-4.996-5.098 0.172-26.368 0.076-52.736 0.088-79.104 0.002-3.842-0.288-7.654-2.69-10.806-5.070-6.654-27.12-6.76-32.392-0.238-1.464 1.812-2.322 3.91-2.466 6.242-0.204 3.324-0.478 6.654-0.482 9.98-0.030 35.46-0.016 70.92-0.016 106.382zM99.196 506.573c0-14.244 0.106-28.49-0.082-42.734-0.042-3.204 0.814-3.986 3.98-3.968 23.488 0.14 46.976 0.038 70.464 0.1 6.366 0.016 12.708 0.652 18.978 1.79 17.784 3.23 28.878 13.198 31.922 29.184 2.714 14.258 2.904 28.63-0.032 42.886-3.302 16.032-12.672 26.398-28.99 30.048-6.538 1.462-13.162 2.19-19.808 2.24-19.85 0.15-39.704 0.080-59.552 0.024-2.254-0.006-4.546-0.274-6.752-0.742-5.286-1.122-8.554-4.406-9.394-9.784-0.444-2.832-0.682-5.722-0.696-8.588-0.078-13.482-0.040-26.968-0.038-40.456z" />
<glyph unicode="&#xe922;" d="M508.061 241.773c-10.014-0.206-13.848 2.816-16.090 12.688-0.67 2.946-1.394 5.91-1.68 8.906-0.634 6.602 1.92 9.948 8.474 11.148 5.804 1.064 11.748 1.486 17.466 2.864 13.472 3.248 23.070 11.516 29.34 23.802 2.758 5.402 5.066 10.986 7 16.72 0.494 1.46 2.070 3.2 0.726 4.566-1.044 1.060-2.852-0.014-4.302-0.286-7.226-1.352-14.47-1.384-21.684-0.078-15.080 2.732-24.648 12.188-30.692 25.694-6.396 14.29-9.548 29.608-13.686 44.598-11.428 41.406-22.65 82.868-33.908 124.322-3.92 14.438-0.648 18.62 14.298 18.58 1.214-0.004 2.426 0.002 3.638-0.046 10.84-0.42 15.598-4.062 18.544-14.582 3.748-13.39 7.316-26.832 10.976-40.25 9.706-35.59 19.418-71.18 29.138-106.766 0.358-1.312 0.84-2.592 1.276-3.882 4.766-14.128 10.844-17.186 27.034-15.182 5.976 0.738 9.378 5.194 11.602 10.454 3.616 8.548 5.108 17.702 7.28 26.646 10.382 42.758 20.62 85.55 30.944 128.322 2.692 11.152 7.36 14.948 18.752 15.256 3.772 0.102 7.558 0.242 11.322-0.546 6.19-1.294 8.43-4.050 8.294-10.42-0.082-3.832-1.198-7.462-2.112-11.12-15.968-63.908-31.916-127.824-48.010-191.7-4.272-16.954-10.294-33.244-20.396-47.748-12.822-18.408-30.784-28.106-52.694-31.11-2.4-0.33-4.808-0.616-7.22-0.834-1.2-0.106-2.42-0.016-3.63-0.016z" />
<glyph unicode="&#xe923;" d="M434.639 430.783c0-15.908 0.396-31.824-0.086-47.718-0.878-28.878-15.226-48.044-42.982-56.010-28.154-8.080-56.84-9.174-85.104-0.604-30.954 9.386-44.472 33.068-43.156 64 0.682 16.012 5.1 30.434 17.538 41.396 9.466 8.344 20.918 12.586 33.032 15.216 11.432 2.482 23.048 3.37 34.73 3.384 14.848 0.020 29.698 0.156 44.542-0.094 4.112-0.070 5.216 1.218 4.978 5.156-0.474 7.852 0.288 15.736-0.58 23.604-1.328 12.048-7.656 20.174-18.882 24.374-12.736 4.762-26.090 5.016-39.438 4.552-13.628-0.472-27.168-1.872-40.528-4.83-9.656-2.138-14.354 1.622-14.95 11.554-0.96 15.998 1.692 20.044 17.54 22.812 28.862 5.044 57.838 6.204 86.468-1.474 19.64-5.266 35.228-15.938 42.746-35.882 3.072-8.154 4.33-16.644 4.31-25.35-0.032-14.696-0.008-29.392-0.008-44.088-0.058 0.002-0.114 0.002-0.17 0.002zM398.053 402.359c0 4.392-0.234 8.804 0.072 13.176 0.252 3.588-0.878 4.664-4.526 4.622-16.056-0.192-32.118-0.072-48.176-0.088-6.224-0.006-12.39-0.688-18.484-1.922-17.074-3.454-24.802-11.46-26.618-27.476-1.818-16.066 5.17-28.874 19.748-33.246 20.106-6.030 40.448-5.186 60.218 1.838 10.498 3.728 15.798 12.136 17.136 23.13 0.812 6.646 0.588 13.308 0.63 19.966z" />
<glyph unicode="&#xe924;" d="M1023.988 651.115c0-6.808 0.030-13.618-0.008-20.426-0.034-6.114-3.092-9.428-9.056-9.452-13.92-0.058-27.842-0.016-41.762 0.118-5.206 0.052-8.638 3.194-8.708 8.466-0.19 14.37-0.208 28.75 0.036 43.12 0.094 5.578 3.5 8.476 9.124 8.506 13.618 0.076 27.238 0.074 40.856 0.006 6.424-0.032 9.47-3.132 9.508-9.454 0.040-6.962 0.008-13.922 0.010-20.884z" />
<glyph unicode="&#xe925;" d="M924.082 702.009c0 4.542-0.064 9.086 0.018 13.626 0.080 4.426 1.946 6.232 6.406 6.248 9.236 0.036 18.47 0.040 27.706-0.002 4.408-0.020 6.406-1.856 6.46-6.278 0.116-9.234 0.11-18.47 0.016-27.704-0.046-4.452-2.26-6.708-6.756-6.768-9.082-0.116-18.168-0.094-27.25 0.016-4.504 0.054-6.586 2.266-6.656 6.786-0.072 4.692-0.016 9.386-0.016 14.078 0.026-0.002 0.050-0.002 0.072-0.002z" />
<glyph unicode="&#xe926;" glyph-name="pin" horiz-adv-x="521" d="M520.747 699.733c0 143.573-116.693 260.267-260.267 260.267s-260.48-116.693-260.48-260.267c0-137.6 107.52-250.453 242.987-259.413v-486.827c0-9.6 7.68-17.28 17.28-17.28s17.28 7.68 17.28 17.28v486.613c135.68 9.173 243.2 121.813 243.2 259.627zM260.267 474.027c-124.373 0-225.707 101.12-225.707 225.707s101.333 225.493 225.707 225.493 225.707-101.12 225.707-225.493-101.333-225.707-225.707-225.707zM173.653 838.613c-38.187 0-69.333-31.147-69.333-69.333s30.933-69.547 69.333-69.547 69.333 31.147 69.333 69.333-31.147 69.547-69.333 69.547zM173.653 734.293c-19.2 0-34.773 15.573-34.773 34.773s15.573 34.773 34.773 34.773 34.773-15.573 34.773-34.773-15.787-34.773-34.773-34.773z" />
<glyph unicode="&#xe927;" glyph-name="poos-favor" d="M455.703 291.905c-3.625 0-7.25-1.493-10.022-4.052-5.544-5.544-5.544-14.501 0-20.045s14.501-5.544 20.045 0c5.544 5.544 5.544 14.501 0 20.045-2.772 2.559-6.397 4.052-10.022 4.052zM596.658 960c-119.417 0-216.443-97.026-216.443-216.443s97.026-216.443 216.443-216.443 216.443 97.026 216.443 216.443-97.026 216.443-216.443 216.443zM596.658 555.475c-103.85 0-188.082 84.445-188.082 188.082s84.445 188.082 188.082 188.082 188.082-84.445 188.082-188.082-84.232-188.082-188.082-188.082zM823.55 189.334c0 0-0.213-0.213-0.426-0.213l0.426 0.213zM1005.874 407.27c26.656 31.56 22.604 78.9-8.956 105.343-31.134 26.229-78.261 22.604-104.916-8.317l-0.213-0.213-124.108-127.52-4.265 5.331c-14.287 17.913-35.612 27.935-58.216 27.935h-226.892l-1.279 0.426c-31.347 13.221-64.613 19.832-98.945 19.832-98.092 0-179.552-45.848-222.84-126.027l-1.919-3.838-4.478 0.853c-3.412 0.64-6.611 1.066-10.022 1.066-14.287 0-28.148-5.758-38.597-15.993l-96.173-97.026c-5.544-5.544-5.544-14.287 0-20.045l227.319-228.811c5.544-5.544 14.287-5.758 20.045-0.213l98.092 96.813c14.501 14.501 19.618 36.891 13.008 56.51l-1.279 3.625 23.883 23.030c12.581 12.155 29.001 18.766 46.274 18.766h268.901c46.061 0 89.563 17.913 122.829 49.686l0.426 0.213c1.279 1.493 7.677 9.17 33.053 39.237 25.163 30.707 69.944 84.445 149.271 179.339zM329.463 56.91l-88.070-86.577-207.274 208.766 86.151 86.577c8.743 8.743 21.964 10.022 32.626 3.625l0.213-0.213c2.132-1.279 2.132-1.279 36.678-35.825 24.95-24.95 66.532-66.532 139.462-139.462 10.236-10.022 10.236-26.656 0.213-36.891zM802.652 208.313v0c-27.935-26.656-64.187-41.369-102.357-41.369h-269.115c-24.736 0-48.193-9.596-65.893-26.656l-21.538-20.685-165.904 165.904 1.919 4.052c37.958 71.224 110.247 112.38 198.317 112.38 31.773 0 62.481-6.397 91.482-18.979 1.919-0.853 3.625-1.279 5.758-1.279h229.878c25.803 0 46.487-20.898 46.487-46.487s-20.898-46.487-46.487-46.487h-165.051c-7.89 0-14.074-6.184-14.074-14.074s6.184-14.074 14.074-14.074h165.051c41.369 0 74.849 33.693 74.849 74.849 0 3.199-0.213 6.397-0.64 9.809l-0.426 2.772 86.151 88.71c37.318 38.171 47.127 48.62 47.98 49.473 16.633 19.405 45.848 21.964 65.466 5.544 19.618-16.633 21.964-45.848 5.544-65.466l-181.471-217.936zM647.41 703.040c0 30.067-24.523 54.591-54.591 54.591-14.501 0-26.229 11.728-26.229 26.229s11.728 26.229 26.229 26.229c8.743 0 17.913-4.265 26.016-12.368 5.758-5.544 14.501-5.331 20.045 0.426s5.331 14.501-0.426 20.045c-8.53 8.103-17.913 13.861-27.509 17.273l-4.265 1.493v27.935c0 7.89-6.184 14.074-14.074 14.074s-14.074-6.184-14.074-14.074v-27.935l-4.052-1.493c-21.751-7.677-36.465-28.362-36.465-51.392 0-30.067 24.523-54.591 54.591-54.591 14.501 0 26.229-11.728 26.229-26.229s-11.728-26.229-26.229-26.229c-10.449 0-21.538 6.184-30.92 17.486-2.772 3.199-6.824 5.118-10.875 5.118-3.199 0-6.397-1.066-9.17-3.199-2.772-2.346-4.691-5.971-5.118-9.809s0.853-7.464 3.199-10.236c9.809-11.942 21.751-20.258 34.119-24.523l4.052-1.493v-28.148c0-7.89 6.184-14.074 14.074-14.074s14.074 6.184 14.074 14.074v27.935l4.052 1.493c22.604 7.677 37.318 28.362 37.318 51.392z" />
<glyph unicode="&#xe928;" glyph-name="tienda" horiz-adv-x="1261" d="M1203.040-27.059h-20.933v547.956c47.531 30.538 79.053 83.733 79.053 144.316 0 3.202-0.739 6.403-2.463 9.112l-146.778 256.369c-10.343 17.978-29.553 29.306-50.24 29.306h-862.445c-20.687 0-40.142-11.082-50.24-29.306l-146.532-256.369c-1.478-2.709-2.463-5.911-2.463-9.112 0-60.583 31.523-113.778 79.053-144.316v-547.956h-20.933c-10.097 0-18.47-8.373-18.47-18.47s8.373-18.47 18.47-18.47h1144.92c10.097 0 18.47 8.373 18.47 18.47s-8.373 18.47-18.47 18.47zM38.172 646.742h59.105c10.097 0 18.47 8.373 18.47 18.47s-8.373 18.47-18.47 18.47h-47.038l130.771 228.787c3.694 6.649 10.836 10.59 18.224 10.59h862.199c7.634 0 14.53-3.94 18.224-10.59l130.771-228.787h-47.038c-10.097 0-18.47-8.373-18.47-18.47s8.373-18.47 18.47-18.47h59.105c-9.112-65.508-65.262-115.994-133.233-115.994s-124.121 50.486-133.233 115.994h128.308c10.097 0 18.47 8.373 18.47 18.47s-8.373 18.47-18.47 18.47h-908.006c-10.097 0-18.47-8.373-18.47-18.47s8.373-18.47 18.47-18.47h128.308c-9.112-65.508-65.262-115.994-133.233-115.994s-124.121 50.486-133.233 115.994zM916.625 646.742c-9.112-65.508-65.262-115.994-133.233-115.994s-124.121 50.486-133.233 115.994h266.467zM610.755 646.742c-9.112-65.508-65.262-115.994-133.233-115.994s-124.121 50.486-133.233 115.994h266.467zM1046.411-27.059h-199.973v61.814h199.973v-61.814zM1046.411 71.696h-199.973v338.132h199.973v-338.132zM1144.92-27.059h-61.814v455.357c0 10.097-8.373 18.47-18.47 18.47h-236.914c-10.097 0-18.47-8.373-18.47-18.47v-455.357h-693.256v529.978c17.485-5.911 36.202-9.358 55.658-9.358 66.74 0 124.614 38.418 152.935 94.076 28.321-55.658 86.195-94.076 152.935-94.076s124.614 38.418 152.935 94.076c28.321-55.658 86.195-94.076 152.935-94.076s124.614 38.418 152.935 94.076c28.321-55.658 86.195-94.076 152.935-94.076 19.456 0 38.172 3.202 55.658 9.358v-529.978z" />
<glyph unicode="&#xe929;" glyph-name="tijera_peine" d="M1010.56 946.56c0 0.213 0 0.213 0 0-8.533 8.533-20.267 13.44-32.213 13.44v0c-10.24 0-20.48-3.627-28.373-10.027-108.8-86.827-218.24-176.64-324.907-266.667-26.027-21.973-51.84-43.947-77.867-66.133l-296.107 296.107c-29.227 29.227-76.8 29.227-106.027 0l-140.587-140.8c-5.76-5.76-5.76-15.36 0-21.12s15.36-5.76 21.12 0l98.133 98.133 21.547-21.547-98.133-98.133c-5.76-5.76-5.76-15.36 0-21.12 2.987-2.987 6.827-4.48 10.667-4.48s7.68 1.493 10.667 4.48l98.133 98.133 21.547-21.547-98.133-98.133c-5.76-5.76-5.76-15.36 0-21.12 2.987-2.987 6.827-4.48 10.667-4.48s7.68 1.493 10.667 4.48l98.133 98.133 21.547-21.547-98.133-98.133c-5.76-5.76-5.76-15.36 0-21.12 2.987-2.987 6.827-4.48 10.667-4.48s7.68 1.493 10.667 4.48l98.133 98.133 21.547-21.547-98.133-98.133c-5.76-5.76-5.76-15.36 0-21.12 2.987-2.987 6.827-4.48 10.667-4.48s7.68 1.493 10.667 4.48l98.133 98.133 21.547-21.547-98.133-98.133c-5.76-5.76-5.76-15.36 0-21.12 2.987-2.987 6.827-4.48 10.667-4.48s7.68 1.493 10.667 4.48l98.133 98.133 21.547-21.547-98.133-98.133c-5.76-5.76-5.76-15.36 0-21.12 2.987-2.987 6.827-4.48 10.667-4.48s7.68 1.493 10.667 4.48l98.133 98.133 21.547-21.547-98.133-98.133c-5.76-5.76-5.76-15.36 0-21.12 2.987-2.987 6.827-4.48 10.667-4.48s7.68 1.493 10.667 4.48l98.133 98.133 22.187-22.187c-46.080-40.107-91.947-80.427-137.173-120.96 0 0 0 0 0 0-13.44-11.947-28.16-25.813-42.667-38.827-8.96-6.4-7.253-17.707-2.773-22.187 0 0 0 0 0 0 14.507-17.493 22.4-39.893 22.4-62.933 0-26.88-10.453-52.267-29.227-71.040-0.213-0.213-45.013-45.013-45.227-45.227-65.28-66.773-180.053-21.12-180.267 73.387 0 57.387 46.293 104.747 104.96 104.747 32 0 61.653-14.293 81.707-38.827 5.333-6.613 15.36-7.467 21.76-1.707 0 0 0.213 0.213 0.213 0.213l0.213 0.213c7.040 6.4 6.613 17.707-1.28 23.253-25.6 29.867-62.933 46.933-102.4 46.933h-0.213c-76.16 0-136.107-61.013-136.107-134.827 0-55.68 33.92-104.747 84.053-125.013 29.867-12.16 62.507-13.013 92.16-3.413-28.16-87.467 37.333-176.427 128.427-176.427h0.213c74.453 0 135.040 60.16 135.040 134.827 0 35.413-13.653 68.907-38.4 94.293 0 0 30.72 34.773 30.72 34.773 53.973 60.16 107.52 120.533 160.213 181.12l22.613-22.613-98.133-98.133c-5.76-5.76-5.76-15.36 0-21.12 2.987-2.987 6.827-4.48 10.667-4.48s7.68 1.493 10.667 4.48l98.133 98.133 21.547-21.547-98.133-98.133c-5.76-5.76-5.76-15.36 0-21.12 2.987-2.987 6.827-4.48 10.667-4.48s7.68 1.493 10.667 4.48l98.133 98.133 21.547-21.547-98.133-98.133c-5.76-5.76-5.76-15.36 0-21.12 2.987-2.987 6.827-4.48 10.667-4.48s7.68 1.493 10.667 4.48l98.133 98.133 21.547-21.547-98.133-98.133c-5.76-5.76-5.76-15.36 0-21.12 2.987-2.987 6.827-4.48 10.667-4.48s7.68 1.493 10.667 4.48l98.133 98.133 21.547-21.547-98.133-98.133c-5.76-5.76-5.76-15.36 0-21.12 2.987-2.987 6.827-4.48 10.667-4.48s7.68 1.493 10.667 4.48l98.133 98.133 21.547-21.547-98.133-98.133c-5.76-5.76-5.76-15.36 0-21.12 2.987-2.987 6.827-4.48 10.667-4.48s7.68 1.493 10.667 4.48l98.133 98.133 21.547-21.547-98.133-98.133c-5.76-5.76-5.76-15.36 0-21.12 2.987-2.987 6.827-4.48 10.667-4.48s7.68 1.493 10.667 4.48l98.133 98.133 21.547-21.547-98.133-98.133c-5.76-5.76-5.76-15.36 0-21.12 2.987-2.987 6.827-4.48 10.667-4.48s7.68 1.493 10.667 4.48l108.8 108.8c0 0 0 0 0 0s0 0 0 0l31.787 31.787c14.080 14.080 21.973 33.067 21.973 53.12s-7.893 38.827-21.973 53.12l-296.533 296.533c114.987 134.187 226.56 268.8 333.227 402.347 12.8 17.92 11.307 43.947-5.12 60.373zM145.067 870.827l21.12 21.12c17.493 17.493 46.080 17.493 63.573 0l294.613-294.613c-18.987-16.427-37.973-32.64-56.96-49.067l-322.347 322.56zM955.947 165.973c8.533-8.533 13.227-19.84 13.227-31.787s-4.693-23.253-13.227-31.787l-21.12-21.12c-9.813 9.813-301.653 301.653-322.773 322.773 16.427 18.987 32.853 37.973 49.28 56.96l294.613-295.040zM417.92 229.547c-7.253 5.547-26.667 15.147-29.867 42.667-0.853 7.467-7.253 13.227-14.933 13.227-8.96 0-16-7.893-14.933-16.853 0 0 0 0 0 0 2.773-24.533 16.213-46.080 36.48-59.307 1.067-0.64 2.133-1.493 3.2-2.133-10.453-11.947-18.987-21.76-28.8-32.64-2.773-2.987-4.053-7.040-3.84-11.307 0.213-4.053 2.347-7.893 5.547-10.453 25.173-20.48 39.040-50.133 39.040-81.707 0-57.813-46.507-104.96-104.96-104.96-57.813 0-104.96 46.507-104.96 104.96 0 47.573 30.080 72.96 32.427 76.16l44.587 44.587c24.533 24.533 37.973 57.6 37.973 92.373 0 25.387-7.253 49.707-20.907 70.613 11.733 10.667 21.973 20.267 33.92 30.933v0c324.907 289.707 637.013 538.88 642.773 542.293-4.053-4.053-589.227-589.013-592-592-5.547-6.187-4.907-15.787 1.28-21.12 6.187-5.547 15.787-4.907 21.12 1.28 1.92 1.92 586.667 586.24 590.933 590.72-1.28-2.347-242.773-308.267-574.080-677.333zM187.947 293.76c-47.36 47.36-128 13.227-128-53.12 0-20.053 7.893-38.827 21.973-53.12 14.72-14.72 33.92-21.973 53.12-21.973s38.4 7.253 53.12 21.973c29.227 29.653 29.227 77.013-0.213 106.24zM166.827 209.067c-17.493-17.493-46.080-17.493-63.573 0-28.16 28.16-8.32 76.8 31.787 76.8 40.32 0 59.733-48.853 31.787-76.8zM304.64 145.92c-30.933 0-57.387-17.707-69.12-46.293-11.947-28.587-5.76-59.947 16.213-81.707 14.507-14.507 33.067-21.973 52.48-21.973 9.813 0 19.627 1.92 29.227 5.973 28.587 11.947 46.507 38.4 46.507 69.12-0.213 41.173-33.92 74.88-75.307 74.88zM321.92 29.44c-13.44-5.547-33.28-5.973-48.853 9.6s-15.147 35.627-9.6 49.067c5.547 13.44 19.413 27.733 41.387 27.733 24.747 0 45.013-20.267 45.013-45.013-0.213-21.973-14.507-35.84-27.947-41.387z" />
<glyph unicode="&#xe92a;" glyph-name="ubicacion" horiz-adv-x="717" d="M361.904 735.566c-72.172 0-130.895-58.723-130.895-130.895s58.723-130.895 130.895-130.895 130.895 58.723 130.895 130.895-58.723 130.895-130.895 130.895zM361.904 511.131c-51.551 0-93.539 41.988-93.539 93.539s41.988 93.539 93.539 93.539 93.539-41.988 93.539-93.539-41.988-93.539-93.539-93.539zM612.189 854.955c-67.689 67.689-157.791 105.045-253.572 105.045s-185.883-37.356-253.572-105.045c-125.366-125.366-140.906-361.157-33.77-504.006l287.342-414.949 286.893 414.352c107.734 143.447 92.045 379.237-33.321 504.604zM615.177 372.168l-256.56-370.571-257.009 371.168c-97.125 129.7-83.229 342.628 29.885 455.742 60.666 60.666 141.355 94.137 227.124 94.137s166.458-33.471 227.124-94.137c113.263-113.114 127.159-326.042 29.436-456.34z" />
<glyph unicode="&#xe92b;" glyph-name="usuario" d="M512 960c-282.667 0-512-229.333-512-512s229.333-512 512-512c15.36 0 30.72 0.64 46.080 2.133 14.293 1.28 28.373 3.2 42.24 5.76l5.333 0.853c260.053 48.427 440.32 287.147 416 550.4s-245.12 464.853-509.653 464.853zM470.827-28.16h-1.28c-13.227 1.28-26.453 2.987-39.467 5.12-0.853 0.213-1.493 0.213-2.133 0.427-12.8 2.347-25.387 5.12-37.973 8.32l-2.987 0.853c-12.16 3.413-24.32 7.253-36.053 11.52-1.28 0.427-2.56 0.853-3.627 1.28-11.733 4.267-23.040 9.173-34.347 14.293-1.493 0.64-2.773 1.28-4.267 1.92-11.093 5.12-21.973 10.88-32.64 16.853-1.493 0.853-2.987 1.707-4.48 2.56-10.453 6.187-20.693 12.587-30.72 19.627-1.493 1.067-2.987 2.133-4.48 3.2-9.813 7.040-19.413 14.507-28.8 22.187l-2.56 2.347v143.787c0.213 103.68 84.053 187.52 187.733 187.733h238.933c103.68-0.213 187.52-84.053 187.733-187.733v-144l-2.347-1.92c-9.6-7.893-19.413-15.573-29.44-22.613-1.28-0.853-2.773-1.92-4.053-2.773-10.24-7.040-20.48-13.653-31.147-19.84-1.28-0.853-2.773-1.493-4.053-2.347-10.88-6.187-21.76-11.947-32.853-17.067-1.28-0.64-2.56-1.067-3.84-1.707-11.307-5.333-22.827-10.027-34.56-14.293-1.067-0.427-2.347-0.853-3.413-1.28-11.947-4.267-24.107-8.107-36.267-11.52l-2.987-0.64c-12.587-3.413-25.173-6.187-37.973-8.533-0.64-0.213-1.493-0.213-2.133-0.427-13.013-2.347-26.24-4.053-39.467-5.333h-1.28c-13.653-1.28-27.307-1.707-41.173-1.707s-27.947 0.64-41.6 1.707zM853.333 113.92v112.213c-0.213 122.453-99.413 221.653-221.867 221.867h-238.933c-122.453-0.213-221.653-99.413-221.867-221.867v-112.213c-183.893 187.52-181.76 488.32 4.48 673.493 186.453 185.173 487.253 185.173 673.493 0 186.453-185.173 188.587-485.973 4.693-673.493v0zM512 823.467c-94.293 0-170.667-76.373-170.667-170.667s76.373-170.667 170.667-170.667 170.667 76.373 170.667 170.667c0 94.293-76.373 170.667-170.667 170.667zM512 516.267c-75.307 0-136.533 61.227-136.533 136.533s61.227 136.533 136.533 136.533 136.533-61.227 136.533-136.533c0-75.307-61.227-136.533-136.533-136.533z" />
<glyph unicode="&#xe92c;" glyph-name="verificado" d="M874.038 810.040c-96.704 96.702-225.278 149.96-362.038 149.96-136.762 0-265.338-53.258-362.040-149.96-96.704-96.704-149.96-225.28-149.96-362.040s53.256-265.334 149.96-362.038c96.704-96.704 225.278-149.962 362.040-149.962 136.76 0 265.334 53.258 362.038 149.962s149.962 225.278 149.962 362.038-53.258 265.334-149.962 362.040zM512-4c-249.234 0-452 202.766-452 452s202.766 452 452 452 452-202.766 452-452-202.766-452-452-452zM756.61 612.282c-11.714 11.712-30.71 11.712-42.424-0.002l-264.918-264.918-139.454 139.454c-11.714 11.714-30.71 11.714-42.426 0s-11.716-30.71 0-42.426l160.666-160.666c5.858-5.858 13.536-8.786 21.212-8.786s15.356 2.93 21.212 8.786l286.132 286.132c11.716 11.714 11.716 30.71 0 42.426z" />
<glyph unicode="&#xe92d;" glyph-name="verificado_full" d="M874.038 810.040c-96.704 96.702-225.278 149.96-362.038 149.96-136.762 0-265.336-53.258-362.040-149.96-96.702-96.704-149.96-225.28-149.96-362.040s53.258-265.334 149.96-362.038c96.704-96.704 225.28-149.962 362.040-149.962s265.334 53.258 362.038 149.96c96.704 96.706 149.962 225.28 149.962 362.040s-53.258 265.334-149.962 362.040zM756.612 569.854l-286.13-286.132c-5.858-5.858-13.536-8.786-21.212-8.786-7.678 0-15.356 2.928-21.214 8.786l-160.668 160.666c-11.716 11.714-11.716 30.708 0 42.426 11.714 11.716 30.71 11.716 42.426 0l139.456-139.454 264.916 264.92c11.714 11.716 30.71 11.716 42.426 0s11.716-30.71 0-42.426z" />
</font>
</defs>
</svg>
